<svg width="24" height="25" viewBox="0 0 24 25" fill="none" xmlns="http://www.w3.org/2000/svg">
<g opacity="0.9">
<path d="M12 7.24414V3.24414H2V21.2441H22V7.24414H12ZM6 19.2441H4V17.2441H6V19.2441ZM6 15.2441H4V13.2441H6V15.2441ZM6 11.2441H4V9.24414H6V11.2441ZM6 7.24414H4V5.24414H6V7.24414ZM10 19.2441H8V17.2441H10V19.2441ZM10 15.2441H8V13.2441H10V15.2441ZM10 11.2441H8V9.24414H10V11.2441ZM10 7.24414H8V5.24414H10V7.24414ZM20 19.2441H12V17.2441H14V15.2441H12V13.2441H14V11.2441H12V9.24414H20V19.2441ZM18 11.2441H16V13.2441H18V11.2441ZM18 15.2441H16V17.2441H18V15.2441Z" fill="#F1F1F1"/>
</g>
</svg>
