<svg width="27" height="27" viewBox="0 0 27 27" fill="none" xmlns="http://www.w3.org/2000/svg">
<path d="M8.44904 22.277C9.93571 23.1344 11.6606 23.6249 13.5001 23.6249C19.092 23.6249 23.625 19.0919 23.625 13.5C23.625 7.90812 19.0919 3.375 13.5 3.375C7.90812 3.375 3.375 7.90812 3.375 13.5C3.375 15.3395 3.86555 17.0644 4.72297 18.5511L4.72368 18.5524C4.80791 18.6984 4.85014 18.7716 4.86918 18.8405C4.88695 18.9048 4.89282 18.9622 4.88827 19.0287C4.88344 19.0994 4.85904 19.1726 4.81082 19.3172L4.80902 19.3226L3.94409 21.9174L3.94342 21.9194C3.76066 22.4677 3.66924 22.742 3.73432 22.9245C3.79103 23.0835 3.91635 23.2087 4.07538 23.2654C4.25812 23.3306 4.53322 23.239 5.08282 23.0558L7.6776 22.1909L7.67936 22.1903C7.82639 22.1413 7.89988 22.1168 7.9711 22.1119C8.03765 22.1074 8.09525 22.1131 8.15955 22.1309C8.22863 22.15 8.30216 22.1923 8.44904 22.277Z" stroke="#5D5D5D" stroke-width="2" stroke-linecap="round" stroke-linejoin="round"/>
</svg>
