<svg width="124" height="120" viewBox="0 0 124 120" fill="none" xmlns="http://www.w3.org/2000/svg">
<path d="M122.549 59.8364C122.549 92.5951 95.3026 119.173 61.6658 119.173C28.0289 119.173 0.782715 92.5951 0.782715 59.8364C0.782715 27.0778 28.0289 0.5 61.6658 0.5C95.3026 0.5 122.549 27.0778 122.549 59.8364Z" fill="white" stroke="#ABABAB"/>
<rect width="55.9546" height="55.1683" transform="translate(33.6885 33.1016)" fill="white"/>
<path d="M61.666 60.686C68.1041 60.686 73.3232 55.5403 73.3232 49.1926C73.3232 42.845 68.1041 37.6992 61.666 37.6992C55.2279 37.6992 50.0088 42.845 50.0088 49.1926C50.0088 55.5403 55.2279 60.686 61.666 60.686Z" stroke="black" stroke-width="1.5" stroke-linecap="round" stroke-linejoin="round"/>
<path d="M81.6928 83.6728C81.6928 74.7769 72.7168 67.582 61.6658 67.582C50.6147 67.582 41.6387 74.7769 41.6387 83.6728" stroke="black" stroke-width="1.5" stroke-linecap="round" stroke-linejoin="round"/>
</svg>
