<svg width="813" height="45" viewBox="0 0 813 45" fill="none" xmlns="http://www.w3.org/2000/svg">
<g clip-path="url(#clip0_264_1118)">
<path d="M31.5097 14.5444L19.4907 25.1513C19.2878 25.3242 19.1259 25.5311 19.0145 25.7599C18.9032 25.9887 18.8445 26.2347 18.8421 26.4837C18.8396 26.7326 18.8934 26.9795 19.0002 27.2099C19.1071 27.4404 19.2649 27.6497 19.4644 27.8258C19.6639 28.0018 19.9012 28.1411 20.1623 28.2353C20.4235 28.3296 20.7033 28.377 20.9855 28.3749C21.2676 28.3727 21.5465 28.321 21.8057 28.2227C22.065 28.1245 22.2995 27.9816 22.4955 27.8025L34.5166 17.1975C35.7123 16.1426 36.384 14.7117 36.384 13.2197C36.384 11.7278 35.7123 10.2969 34.5166 9.24191C33.321 8.18693 31.6993 7.59424 30.0084 7.59424C28.3175 7.59424 26.6959 8.18693 25.5002 9.24191L13.4791 19.8488C12.472 20.7153 11.67 21.7496 11.1194 22.8917C10.5689 24.0338 10.2809 25.2611 10.2721 26.5022C10.2632 27.7433 10.5338 28.9736 11.0681 30.1217C11.6024 31.2699 12.3897 32.313 13.3844 33.1905C14.3791 34.0681 15.5614 34.7626 16.8627 35.2339C18.1639 35.7051 19.5583 35.9437 20.9649 35.9357C22.3715 35.9278 23.7623 35.6735 25.0567 35.1875C26.351 34.7016 27.5231 33.9938 28.505 33.105L40.5261 22.5L43.5309 25.1513L31.5097 35.7582C30.1284 36.977 28.4885 37.9438 26.6837 38.6035C24.8789 39.2631 22.9445 39.6026 20.991 39.6026C19.0375 39.6026 17.1031 39.2631 15.2983 38.6035C13.4935 37.9438 11.8536 36.977 10.4722 35.7582C9.0909 34.5393 7.99516 33.0924 7.24758 31.4999C6.50001 29.9074 6.11523 28.2006 6.11523 26.4769C6.11523 24.7532 6.50001 23.0464 7.24758 21.4539C7.99516 19.8615 9.0909 18.4145 10.4722 17.1957L22.4955 6.59066C24.4994 4.88293 27.1833 3.93798 29.9691 3.95934C32.755 3.9807 35.4199 4.96666 37.3898 6.70486C39.3598 8.44306 40.4772 10.7944 40.5014 13.2525C40.5256 15.7106 39.4547 18.0788 37.5192 19.8469L25.5002 30.4575C24.9081 30.9799 24.2051 31.3943 23.4315 31.6769C22.6578 31.9596 21.8287 32.105 20.9913 32.1049C20.154 32.1048 19.3248 31.9592 18.5513 31.6764C17.7777 31.3936 17.0748 30.9791 16.4828 30.4566C15.8908 29.9341 15.4212 29.3138 15.1008 28.6312C14.7805 27.9486 14.6157 27.217 14.6158 26.4781C14.6159 25.7393 14.7809 25.0077 15.1014 24.3251C15.4219 23.6426 15.8917 23.0224 16.4839 22.5L28.505 11.8932L31.5097 14.5444Z" fill="#A6ADB5"/>
</g>
<g clip-path="url(#clip1_264_1118)">
<path d="M779 17.1369C778.195 16.8541 778.188 16.3975 779.015 16.1066L808.441 5.76838C809.257 5.48238 809.724 5.96338 809.496 6.80513L801.087 37.8199C800.856 38.6795 800.386 38.7088 800.041 37.893L794.5 24.75L803.75 11.75L791.417 21.5L779 17.1369Z" fill="#A6ADB5"/>
</g>
<g clip-path="url(#clip2_264_1118)">
<path d="M719 3.45801C720.04 3.45801 721.069 3.64661 722.03 4.01305C722.99 4.37949 723.863 4.91659 724.598 5.59369C725.333 6.27078 725.916 7.07461 726.314 7.95927C726.712 8.84394 726.917 9.79212 726.917 10.7497V19.4997C726.917 21.4335 726.083 23.2882 724.598 24.6557C723.113 26.0231 721.1 26.7913 719 26.7913C716.9 26.7913 714.887 26.0231 713.402 24.6557C711.917 23.2882 711.083 21.4335 711.083 19.4997V10.7497C711.083 8.8158 711.917 6.96114 713.402 5.59369C714.887 4.22623 716.9 3.45801 719 3.45801ZM703.471 22.3609L706.577 21.7878C707.154 24.431 708.707 26.8086 710.971 28.5168C713.236 30.225 716.073 31.1584 719 31.1584C721.927 31.1584 724.764 30.225 727.029 28.5168C729.293 26.8086 730.846 24.431 731.423 21.7878L734.529 22.3609C733.085 29.0445 726.679 34.083 719 34.083C711.321 34.083 704.915 29.0445 703.471 22.3609Z" fill="#A6ADB5"/>
</g>
<defs>
<clipPath id="clip0_264_1118">
<rect width="51" height="45" fill="white"/>
</clipPath>
<clipPath id="clip1_264_1118">
<rect width="37" height="39" fill="white" transform="translate(776 2)"/>
</clipPath>
<clipPath id="clip2_264_1118">
<rect width="38" height="35" fill="white" transform="translate(700 2)"/>
</clipPath>
</defs>
</svg>
