<svg width="28" height="28" viewBox="0 0 28 28" fill="none" xmlns="http://www.w3.org/2000/svg">
<circle cx="14" cy="14" r="13.5" fill="white" stroke="#F4F4F4"/>
<path d="M10.5207 9.91052C10.2429 10.3664 9.7779 10.6662 9.25846 10.7418C8.96658 10.7843 8.67579 10.8302 8.38615 10.8797C7.57625 11.0179 7 11.7476 7 12.5886V19.2273C7 20.2063 7.77489 21 8.73077 21H20.2692C21.2251 21 22 20.2063 22 19.2273V12.5886C22 11.7477 21.4238 11.0179 20.6139 10.8797C20.3242 10.8302 20.0334 10.7843 19.7415 10.7418C19.2221 10.6662 18.7571 10.3664 18.4793 9.91053L17.8476 8.87367C17.5565 8.3958 17.0611 8.08539 16.5119 8.05519C15.8458 8.01855 15.175 8 14.5 8C13.825 8 13.1542 8.01855 12.4881 8.05519C11.9389 8.08539 11.4435 8.3958 11.1524 8.87367L10.5207 9.91052Z" stroke="#362E2E" stroke-width="1.5" stroke-linecap="round" stroke-linejoin="round"/>
<path d="M17.9615 15.0909C17.9615 17.049 16.4118 18.6364 14.5 18.6364C12.5882 18.6364 11.0385 17.049 11.0385 15.0909C11.0385 13.1328 12.5882 11.5455 14.5 11.5455C16.4118 11.5455 17.9615 13.1328 17.9615 15.0909Z" stroke="#362E2E" stroke-width="1.5" stroke-linecap="round" stroke-linejoin="round"/>
<path d="M19.6923 13.3182H19.6981V13.3241H19.6923V13.3182Z" stroke="#362E2E" stroke-width="1.5" stroke-linecap="round" stroke-linejoin="round"/>
</svg>
