<svg width="131" height="128" viewBox="0 0 131 128" fill="none" xmlns="http://www.w3.org/2000/svg">
<path d="M130.5 64C130.5 99.0592 101.409 127.5 65.5 127.5C29.5905 127.5 0.5 99.0592 0.5 64C0.5 28.9408 29.5905 0.5 65.5 0.5C101.409 0.5 130.5 28.9408 130.5 64Z" fill="white" stroke="#ABABAB"/>
<rect x="39" y="35.2969" width="53" height="58.827" rx="9" fill="white"/>
<path d="M65.5002 64.7105C71.5983 64.7105 76.5418 59.2235 76.5418 52.4549C76.5418 45.6863 71.5983 40.1992 65.5002 40.1992C59.402 40.1992 54.4585 45.6863 54.4585 52.4549C54.4585 59.2235 59.402 64.7105 65.5002 64.7105Z" stroke="#1D9C92" stroke-width="1.5" stroke-linecap="round" stroke-linejoin="round"/>
<path d="M84.4694 89.2223C84.4694 79.7365 75.9673 72.0645 65.4998 72.0645C55.0323 72.0645 46.5303 79.7365 46.5303 89.2223" stroke="#1D9C92" stroke-width="1.5" stroke-linecap="round" stroke-linejoin="round"/>
<path fill-rule="evenodd" clip-rule="evenodd" d="M102 108.462C102 100.543 108.445 94.123 116.395 94.123C124.346 94.123 130.79 100.543 130.79 108.462C130.79 116.381 124.346 122.801 116.395 122.801C108.445 122.801 102 116.381 102 108.462ZM121.726 105.794C122.081 105.299 121.966 104.61 121.468 104.256C120.971 103.901 120.279 104.016 119.923 104.512L115.147 111.174L112.749 108.785C112.316 108.354 111.615 108.354 111.183 108.785C110.75 109.216 110.75 109.914 111.183 110.345L114.505 113.654C114.735 113.883 115.055 114 115.379 113.973C115.704 113.947 116 113.779 116.189 113.515L121.726 105.794Z" fill="#00A650"/>
</svg>
