<svg width="74" height="14" viewBox="0 0 74 14" fill="none" xmlns="http://www.w3.org/2000/svg">
<path d="M7.25474 0.867194C7.2919 0.794629 7.3956 0.794629 7.43276 0.867194L9.27297 4.46108C9.2875 4.48945 9.31467 4.50919 9.34614 4.51424L13.3328 5.15381C13.4133 5.16673 13.4453 5.26536 13.3878 5.32312L10.5385 8.18384C10.516 8.20642 10.5056 8.23836 10.5105 8.26985L11.1342 12.259C11.1468 12.3396 11.0629 12.4005 10.9902 12.3637L7.38897 10.5378C7.36055 10.5234 7.32695 10.5234 7.29853 10.5378L3.69733 12.3637C3.62462 12.4005 3.54072 12.3396 3.55331 12.259L4.17698 8.26985C4.18191 8.23836 4.17153 8.20642 4.14904 8.18384L1.2997 5.32312C1.24217 5.26536 1.27422 5.16673 1.35471 5.15381L5.34136 4.51424C5.37283 4.50919 5.4 4.48945 5.41453 4.46108L7.25474 0.867194Z" fill="#E9A426"/>
<path d="M22.411 0.867194C22.4481 0.794629 22.5519 0.794629 22.589 0.867194L24.4292 4.46108C24.4437 4.48945 24.4709 4.50919 24.5024 4.51424L28.489 5.15381C28.5695 5.16673 28.6016 5.26536 28.544 5.32312L25.6947 8.18384C25.6722 8.20642 25.6618 8.23836 25.6668 8.26985L26.2904 12.259C26.303 12.3396 26.2191 12.4005 26.1464 12.3637L22.5452 10.5378C22.5168 10.5234 22.4832 10.5234 22.4548 10.5378L18.8536 12.3637C18.7809 12.4005 18.697 12.3396 18.7096 12.259L19.3332 8.26985C19.3382 8.23836 19.3278 8.20642 19.3053 8.18384L16.456 5.32312C16.3984 5.26536 16.4305 5.16673 16.511 5.15381L20.4976 4.51424C20.5291 4.50919 20.5563 4.48945 20.5708 4.46108L22.411 0.867194Z" fill="#E9A426"/>
<path d="M37.411 0.867194C37.4481 0.794629 37.5519 0.794629 37.589 0.867194L39.4292 4.46108C39.4437 4.48945 39.4709 4.50919 39.5024 4.51424L43.489 5.15381C43.5695 5.16673 43.6016 5.26536 43.544 5.32312L40.6947 8.18384C40.6722 8.20642 40.6618 8.23836 40.6668 8.26985L41.2904 12.259C41.303 12.3396 41.2191 12.4005 41.1464 12.3637L37.5452 10.5378C37.5168 10.5234 37.4832 10.5234 37.4548 10.5378L33.8536 12.3637C33.7809 12.4005 33.697 12.3396 33.7096 12.259L34.3332 8.26985C34.3382 8.23836 34.3278 8.20642 34.3053 8.18384L31.456 5.32312C31.3984 5.26536 31.4305 5.16673 31.511 5.15381L35.4976 4.51424C35.5291 4.50919 35.5563 4.48945 35.5708 4.46108L37.411 0.867194Z" fill="#E9A426"/>
<path d="M52.411 0.867194C52.4481 0.794629 52.5519 0.794629 52.589 0.867194L54.4292 4.46108C54.4437 4.48945 54.4709 4.50919 54.5024 4.51424L58.489 5.15381C58.5695 5.16673 58.6016 5.26536 58.544 5.32312L55.6947 8.18384C55.6722 8.20642 55.6618 8.23836 55.6668 8.26985L56.2904 12.259C56.303 12.3396 56.2191 12.4005 56.1464 12.3637L52.5452 10.5378C52.5168 10.5234 52.4832 10.5234 52.4548 10.5378L48.8536 12.3637C48.7809 12.4005 48.697 12.3396 48.7096 12.259L49.3332 8.26985C49.3382 8.23836 49.3278 8.20642 49.3053 8.18384L46.456 5.32312C46.3984 5.26536 46.4305 5.16673 46.511 5.15381L50.4976 4.51424C50.5291 4.50919 50.5563 4.48945 50.5708 4.46108L52.411 0.867194Z" fill="#E9A426"/>
<path d="M67.411 0.867194C67.4481 0.794629 67.5519 0.794629 67.589 0.867194L69.4292 4.46108C69.4437 4.48945 69.4709 4.50919 69.5024 4.51424L73.489 5.15381C73.5695 5.16673 73.6016 5.26536 73.544 5.32312L70.6947 8.18384C70.6722 8.20642 70.6618 8.23836 70.6668 8.26985L71.2904 12.259C71.303 12.3396 71.2191 12.4005 71.1464 12.3637L67.5452 10.5378C67.5168 10.5234 67.4832 10.5234 67.4548 10.5378L63.8536 12.3637C63.7809 12.4005 63.697 12.3396 63.7096 12.259L64.3332 8.26985C64.3382 8.23836 64.3278 8.20642 64.3053 8.18384L61.456 5.32312C61.3984 5.26536 61.4305 5.16673 61.511 5.15381L65.4976 4.51424C65.5291 4.50919 65.5563 4.48945 65.5708 4.46108L67.411 0.867194Z" fill="#E9A426"/>
</svg>
