<svg width="137" height="136" viewBox="0 0 137 136" fill="none" xmlns="http://www.w3.org/2000/svg">
<path d="M135.657 67.584C135.657 104.63 105.405 134.668 68.0786 134.668C30.7525 134.668 0.5 104.63 0.5 67.584C0.5 30.538 30.7525 0.5 68.0786 0.5C105.405 0.5 135.657 30.538 135.657 67.584Z" fill="white" stroke="#ABABAB"/>
<path d="M88.5717 67.5107C88.5717 80.0486 80.3254 91.7916 69.0594 95.2274C68.2929 95.4581 67.4566 95.4581 66.69 95.2274C55.424 91.7916 47.1777 80.0486 47.1777 67.5107V56.2548C47.1777 54.1523 48.618 51.7678 50.4066 50.973L63.345 45.1272C66.2487 43.8196 69.5239 43.8196 72.4276 45.1272L85.3661 50.973C87.1315 51.7678 88.5949 54.1523 88.5949 56.2548L88.5717 67.5107Z" stroke="#3BA585" stroke-width="1.5" stroke-linecap="round" stroke-linejoin="round"/>
<path d="M67.8748 71.0489C70.4406 71.0489 72.5206 68.753 72.5206 65.9209C72.5206 63.0888 70.4406 60.793 67.8748 60.793C65.309 60.793 63.229 63.0888 63.229 65.9209C63.229 68.753 65.309 71.0489 67.8748 71.0489Z" stroke="#3BA585" stroke-width="1.5" stroke-miterlimit="10" stroke-linecap="round" stroke-linejoin="round"/>
<path d="M67.875 71.0488V78.7408" stroke="#3BA585" stroke-width="1.5" stroke-miterlimit="10" stroke-linecap="round" stroke-linejoin="round"/>
</svg>
