<svg width="129" height="99" viewBox="0 0 129 99" fill="none" xmlns="http://www.w3.org/2000/svg">
<path d="M18.167 66.8574V70.0717L57.0963 97.7146L96.0255 70.0717V66.8574H92.7814V68.1431L57.0963 93.2146L22.7087 68.1431L22.0599 66.8574H18.167Z" fill="#0D0D0D" stroke="white"/>
<path d="M10.7752 41.8311C8.98966 41.8311 7.50516 42.5614 6.32171 44.022C5.13826 45.4826 4.54653 47.3751 4.54653 49.6997C4.54653 52.4151 5.1694 54.5443 6.41514 56.0871C7.66087 57.63 9.15576 58.4014 10.8998 58.4014C11.9379 58.4014 12.9656 58.0517 13.983 57.3523C15.0003 56.6323 15.6543 55.8711 15.945 55.0689L16.6925 55.4391C16.2149 56.5706 15.4571 57.5271 14.419 58.3089C13.4016 59.07 12.021 59.4506 10.2769 59.4506C7.51554 59.4506 5.32512 58.566 3.70566 56.7969C2.10696 55.0071 1.30762 52.8677 1.30762 50.3786C1.30762 47.4986 2.23154 45.1843 4.07938 43.4357C5.94799 41.6666 8.16955 40.782 10.7441 40.782C11.3462 40.782 12.0417 40.9363 12.8307 41.2449C13.6196 41.5534 14.0764 41.7077 14.201 41.7077C14.4501 41.7077 14.5747 41.502 14.5747 41.0906H15.291L15.6024 45.0094H14.9173C14.772 44.0837 14.3567 43.3226 13.6716 42.726C13.0072 42.1294 12.0417 41.8311 10.7752 41.8311ZM27.9516 59.142V58.494C28.9067 58.494 29.5088 58.3706 29.7579 58.1237L28.0139 53.4026H22.0343L20.4149 57.9386C20.6225 58.3089 21.2661 58.494 22.3458 58.494V59.142H17.2383V58.494C18.4009 58.494 19.055 58.278 19.2003 57.846L25.2421 41.0906H26.737L32.7788 57.846C32.9242 58.278 33.5885 58.494 34.772 58.494V59.142H27.9516ZM24.993 45.1946L22.4081 52.3843H27.6402L24.993 45.1946ZM35.7965 59.142V58.494C36.9176 58.494 37.5717 58.2883 37.7585 57.8769V42.3557C37.5717 41.9443 36.9176 41.7386 35.7965 41.7386V41.0906H40.3434L46.977 55.4391L53.6105 41.0906H58.2197V41.7386C57.0986 41.7386 56.4446 41.9443 56.2577 42.3557V57.8769C56.4446 58.2883 57.0986 58.494 58.2197 58.494V59.142H51.4305V58.494C52.5516 58.494 53.2057 58.2883 53.3925 57.8769V44.022L46.4164 59.142H45.9492L38.8174 43.8369V57.8769C39.0043 58.2883 39.6583 58.494 40.7794 58.494V59.142H35.7965ZM69.765 35.0117H73.0662L68.2701 40.0106H67.4604L69.765 35.0117ZM60.8268 59.142V58.494C61.948 58.494 62.602 58.2883 62.7889 57.8769V42.3557C62.602 41.9443 61.948 41.7386 60.8268 41.7386V41.0906H73.3776V44.0837H72.7236C72.7236 42.9729 72.516 42.3249 72.1008 42.1397H65.6541V49.2369H70.0141C70.4294 49.0517 70.637 48.4037 70.637 47.2929H71.291V52.23H70.637C70.637 51.1191 70.4294 50.4711 70.0141 50.286H65.6541V58.0929H72.7548C73.2738 57.8666 73.741 57.2186 74.1562 56.1489H74.7791L74.0316 59.142H60.8268ZM76.6115 59.142V58.494C77.7326 58.494 78.3867 58.2883 78.5735 57.8769V42.3557C78.3867 41.9443 77.7326 41.7386 76.6115 41.7386V41.0906H83.4007V41.7386C82.2796 41.7386 81.6256 41.9443 81.4387 42.3557V58.0929H88.5394C89.0585 57.8666 89.5256 57.2186 89.9409 56.1489H90.5637L89.8163 59.142H76.6115ZM92.0311 59.142V58.494C93.1523 58.494 93.8063 58.2883 93.9931 57.8769V42.3557C93.8063 41.9443 93.1523 41.7386 92.0311 41.7386V41.0906H98.8204V41.7386C97.6992 41.7386 97.0452 41.9443 96.8583 42.3557V57.8769C97.0452 58.2883 97.6992 58.494 98.8204 58.494V59.142H92.0311ZM110.585 59.142V58.494C111.54 58.494 112.142 58.3706 112.391 58.1237L110.647 53.4026H104.668L103.048 57.9386C103.256 58.3089 103.9 58.494 104.979 58.494V59.142H99.8716V58.494C101.034 58.494 101.688 58.278 101.834 57.846L107.876 41.0906H109.37L115.412 57.846C115.558 58.278 116.222 58.494 117.405 58.494V59.142H110.585ZM107.626 45.1946L105.042 52.3843H110.274L107.626 45.1946Z" fill="#0D0D0D"/>
<path d="M22.0599 33.428H18.167V28.928L30.4946 19.928V7.71373H33.7387V17.3566L57.0963 1.28516L96.0255 28.928V33.428H92.1326V30.8566L57.0963 5.78516L22.0599 30.8566V33.428Z" fill="#0D0D0D" stroke="white"/>
</svg>
