<svg width="1451" height="131" viewBox="0 0 1451 131" fill="none" xmlns="http://www.w3.org/2000/svg">
<path d="M75.2424 66.8574V70.0717L114.333 97.7146L153.424 70.0717V66.8574H150.167V68.1431L114.333 93.2146L79.803 68.1431L79.1515 66.8574H75.2424Z" fill="#0D0D0D" stroke="white"/>
<path d="M67.8204 41.8321C66.0274 41.8321 64.5367 42.5624 63.3484 44.023C62.16 45.4836 61.5658 47.3761 61.5658 49.7007C61.5658 52.4161 62.1913 54.5453 63.4422 56.0881C64.6931 57.631 66.1942 58.4024 67.9455 58.4024C68.9879 58.4024 70.0199 58.0527 71.0415 57.3533C72.0631 56.6333 72.7198 55.8721 73.0117 55.0698L73.7622 55.4401C73.2827 56.5716 72.5217 57.5281 71.4793 58.3098C70.4577 59.071 69.0713 59.4516 67.32 59.4516C64.5472 59.4516 62.3477 58.567 60.7215 56.7978C59.1161 55.0081 58.3135 52.8687 58.3135 50.3795C58.3135 47.4995 59.2412 45.1853 61.0967 43.4367C62.9731 41.6676 65.2039 40.783 67.7891 40.783C68.3937 40.783 69.0921 40.9373 69.8844 41.2458C70.6766 41.5544 71.1353 41.7087 71.2604 41.7087C71.5106 41.7087 71.6357 41.503 71.6357 41.0916H72.3549L72.6677 45.0104H71.9797C71.8337 44.0847 71.4167 43.3236 70.7287 42.727C70.0616 42.1304 69.0921 41.8321 67.8204 41.8321ZM85.0681 59.143V58.495C86.0271 58.495 86.6317 58.3716 86.8819 58.1247L85.1306 53.4036H79.1263L77.5001 57.9396C77.7086 58.3098 78.3549 58.495 79.439 58.495V59.143H74.3103V58.495C75.4778 58.495 76.1345 58.279 76.2804 57.847L82.3473 41.0916H83.8484L89.9153 57.847C90.0613 58.279 90.7284 58.495 91.9168 58.495V59.143H85.0681ZM82.0972 45.1956L79.5015 52.3853H84.7553L82.0972 45.1956ZM92.9455 59.143V58.495C94.0714 58.495 94.7281 58.2893 94.9157 57.8778V42.3567C94.7281 41.9453 94.0714 41.7396 92.9455 41.7396V41.0916H97.5114L104.172 55.4401L110.834 41.0916H115.462V41.7396C114.336 41.7396 113.679 41.9453 113.492 42.3567V57.8778C113.679 58.2893 114.336 58.495 115.462 58.495V59.143H108.644V58.495C109.77 58.495 110.427 58.2893 110.615 57.8778V44.023L103.61 59.143H103.14L95.979 43.8378V57.8778C96.1666 58.2893 96.8234 58.495 97.9492 58.495V59.143H92.9455ZM127.055 35.0127H130.37L125.554 40.0116H124.741L127.055 35.0127ZM118.08 59.143V58.495C119.206 58.495 119.862 58.2893 120.05 57.8778V42.3567C119.862 41.9453 119.206 41.7396 118.08 41.7396V41.0916H130.683V44.0847H130.026C130.026 42.9738 129.818 42.3258 129.401 42.1407H122.927V49.2378H127.305C127.722 49.0527 127.931 48.4047 127.931 47.2938H128.587V52.231H127.931C127.931 51.1201 127.722 50.4721 127.305 50.287H122.927V58.0938H130.057C130.578 57.8675 131.048 57.2196 131.465 56.1498H132.09L131.339 59.143H118.08ZM133.93 59.143V58.495C135.056 58.495 135.713 58.2893 135.9 57.8778V42.3567C135.713 41.9453 135.056 41.7396 133.93 41.7396V41.0916H140.747V41.7396C139.622 41.7396 138.965 41.9453 138.777 42.3567V58.0938H145.907C146.429 57.8675 146.898 57.2196 147.315 56.1498H147.94L147.19 59.143H133.93ZM149.414 59.143V58.495C150.539 58.495 151.196 58.2893 151.384 57.8778V42.3567C151.196 41.9453 150.539 41.7396 149.414 41.7396V41.0916H156.231V41.7396C155.105 41.7396 154.449 41.9453 154.261 42.3567V57.8778C154.449 58.2893 155.105 58.495 156.231 58.495V59.143H149.414ZM168.045 59.143V58.495C169.004 58.495 169.608 58.3716 169.858 58.1247L168.107 53.4036H162.103L160.477 57.9396C160.685 58.3098 161.331 58.495 162.416 58.495V59.143H157.287V58.495C158.454 58.495 159.111 58.279 159.257 57.847L165.324 41.0916H166.825L172.892 57.847C173.038 58.279 173.705 58.495 174.893 58.495V59.143H168.045ZM165.074 45.1956L162.478 52.3853H167.732L165.074 45.1956Z" fill="#0D0D0D"/>
<path d="M79.1515 33.429H75.2424V28.929L87.6212 19.929V7.7147H90.8788V17.3576L114.333 1.28613L153.424 28.929V33.429H149.515V30.8576L114.333 5.78613L79.1515 30.8576V33.429Z" fill="#0D0D0D" stroke="white"/>
<line x1="-0.00634766" y1="130.5" x2="1451.01" y2="130.5" stroke="#0D0D0D"/>
</svg>
