<svg width="113" height="82" viewBox="0 0 113 82" fill="none" xmlns="http://www.w3.org/2000/svg">
<path d="M15.9797 55.377V58.0393L50.2222 80.9354L84.4646 58.0393V55.377H81.6111V56.4419L50.2222 77.2081L19.9747 56.4419L19.404 55.377H15.9797Z" fill="#0D0D0D" stroke="white"/>
<path d="M9.47839 34.6484C7.90781 34.6484 6.60203 35.2533 5.56106 36.4631C4.52009 37.6728 3.9996 39.2404 3.9996 41.1658C3.9996 43.415 4.54748 45.1785 5.64324 46.4564C6.739 47.7343 8.05391 48.3733 9.58797 48.3733C10.5011 48.3733 11.4051 48.0836 12.3 47.5043C13.1948 46.9079 13.7701 46.2775 14.0258 45.613L14.6832 45.9197C14.2632 46.8568 13.5966 47.6491 12.6835 48.2966C11.7886 48.9271 10.5741 49.2423 9.04009 49.2423C6.61116 49.2423 4.68445 48.5096 3.25997 47.0443C1.85375 45.5619 1.15063 43.7898 1.15063 41.7281C1.15063 39.3426 1.96332 37.4258 3.5887 35.9775C5.23233 34.5121 7.18643 33.7794 9.451 33.7794C9.98061 33.7794 10.5924 33.9072 11.2864 34.1628C11.9804 34.4184 12.3821 34.5462 12.4917 34.5462C12.7109 34.5462 12.8205 34.3758 12.8205 34.035H13.4505L13.7245 37.2809H13.1218C12.9939 36.5142 12.6287 35.8837 12.026 35.3896C11.4416 34.8955 10.5924 34.6484 9.47839 34.6484ZM24.5868 48.9867V48.45C25.4269 48.45 25.9565 48.3477 26.1757 48.1433L24.6416 44.2328H19.382L17.9575 47.9899C18.1401 48.2966 18.7063 48.45 19.6559 48.45V48.9867H15.1633V48.45C16.186 48.45 16.7613 48.2711 16.8891 47.9132L22.2036 34.035H23.5185L28.8329 47.9132C28.9607 48.2711 29.5451 48.45 30.5861 48.45V48.9867H24.5868ZM21.9844 37.4343L19.7107 43.3894H24.3129L21.9844 37.4343ZM31.4873 48.9867V48.45C32.4734 48.45 33.0487 48.2796 33.2131 47.9388V35.0829C33.0487 34.7421 32.4734 34.5717 31.4873 34.5717V34.035H35.4868L41.3217 45.9197L47.1566 34.035H51.2109V34.5717C50.2247 34.5717 49.6494 34.7421 49.4851 35.0829V47.9388C49.6494 48.2796 50.2247 48.45 51.2109 48.45V48.9867H45.239V48.45C46.2252 48.45 46.8005 48.2796 46.9648 47.9388V36.4631L40.8286 48.9867H40.4177L34.1445 36.3097V47.9388C34.3088 48.2796 34.8841 48.45 35.8703 48.45V48.9867H31.4873ZM61.3662 29H64.2699L60.0513 33.1405H59.339L61.3662 29ZM53.5041 48.9867V48.45C54.4903 48.45 55.0656 48.2796 55.2299 47.9388V35.0829C55.0656 34.7421 54.4903 34.5717 53.5041 34.5717V34.035H64.5439V36.5142H63.9686C63.9686 35.5941 63.786 35.0574 63.4207 34.904H57.7502V40.7824H61.5853C61.9506 40.6291 62.1332 40.0924 62.1332 39.1723H62.7085V43.2616H62.1332C62.1332 42.3415 61.9506 41.8048 61.5853 41.6514H57.7502V48.1177H63.996C64.4525 47.9303 64.8635 47.3936 65.2287 46.5075H65.7766L65.1191 48.9867H53.5041ZM67.3884 48.9867V48.45C68.3746 48.45 68.9498 48.2796 69.1142 47.9388V35.0829C68.9498 34.7421 68.3746 34.5717 67.3884 34.5717V34.035H73.3603V34.5717C72.3741 34.5717 71.7988 34.7421 71.6344 35.0829V48.1177H77.8802C78.3368 47.9303 78.7477 47.3936 79.113 46.5075H79.6609L79.0034 48.9867H67.3884ZM80.9516 48.9867V48.45C81.9377 48.45 82.513 48.2796 82.6774 47.9388V35.0829C82.513 34.7421 81.9377 34.5717 80.9516 34.5717V34.035H86.9234V34.5717C85.9373 34.5717 85.362 34.7421 85.1976 35.0829V47.9388C85.362 48.2796 85.9373 48.45 86.9234 48.45V48.9867H80.9516ZM97.2717 48.9867V48.45C98.1118 48.45 98.6414 48.3477 98.8606 48.1433L97.3265 44.2328H92.0669L90.6424 47.9899C90.825 48.2966 91.3912 48.45 92.3408 48.45V48.9867H87.8481V48.45C88.8709 48.45 89.4462 48.2711 89.574 47.9132L94.8885 34.035H96.2034L101.518 47.9132C101.646 48.2711 102.23 48.45 103.271 48.45V48.9867H97.2717ZM94.6693 37.4343L92.3956 43.3894H96.9978L94.6693 37.4343Z" fill="#0D0D0D"/>
<path d="M19.404 27.6878H15.9797V23.9606L26.8232 16.506V6.38913H29.6767V14.3761L50.2222 1.06445L84.4646 23.9606V27.6878H81.0403V25.558L50.2222 4.79173L19.404 25.558V27.6878Z" fill="#0D0D0D" stroke="white"/>
</svg>
