<svg width="129" height="99" viewBox="0 0 129 99" fill="none" xmlns="http://www.w3.org/2000/svg">
<path d="M18.2424 66.8574V70.0717L57.3333 97.7146L96.4242 70.0717V66.8574H93.1667V68.1431L57.3333 93.2146L22.803 68.1431L22.1515 66.8574H18.2424Z" fill="white" stroke="white"/>
<path d="M10.8204 41.8311C9.02742 41.8311 7.53675 42.5614 6.34839 44.022C5.16002 45.4826 4.56584 47.3751 4.56584 49.6997C4.56584 52.4151 5.19129 54.5443 6.4422 56.0871C7.69311 57.63 9.1942 58.4014 10.9455 58.4014C11.9879 58.4014 13.0199 58.0517 14.0415 57.3523C15.0631 56.6323 15.7198 55.8711 16.0117 55.0689L16.7622 55.4391C16.2827 56.5706 15.5217 57.5271 14.4793 58.3089C13.4577 59.07 12.0713 59.4506 10.32 59.4506C7.54717 59.4506 5.34766 58.566 3.72148 56.7969C2.11614 55.0071 1.31348 52.8677 1.31348 50.3786C1.31348 47.4986 2.24123 45.1843 4.09675 43.4357C5.97311 41.6666 8.2039 40.782 10.7891 40.782C11.3937 40.782 12.0921 40.9363 12.8844 41.2449C13.6766 41.5534 14.1353 41.7077 14.2604 41.7077C14.5106 41.7077 14.6357 41.502 14.6357 41.0906H15.3549L15.6677 45.0094H14.9797C14.8337 44.0837 14.4167 43.3226 13.7287 42.726C13.0616 42.1294 12.0921 41.8311 10.8204 41.8311ZM28.0681 59.142V58.494C29.0271 58.494 29.6317 58.3706 29.8819 58.1237L28.1306 53.4026H22.1263L20.5001 57.9386C20.7086 58.3089 21.3549 58.494 22.439 58.494V59.142H17.3103V58.494C18.4778 58.494 19.1345 58.278 19.2804 57.846L25.3473 41.0906H26.8484L32.9153 57.846C33.0613 58.278 33.7284 58.494 34.9168 58.494V59.142H28.0681ZM25.0972 45.1946L22.5015 52.3843H27.7553L25.0972 45.1946ZM35.9455 59.142V58.494C37.0714 58.494 37.7281 58.2883 37.9157 57.8769V42.3557C37.7281 41.9443 37.0714 41.7386 35.9455 41.7386V41.0906H40.5114L47.1725 55.4391L53.8335 41.0906H58.4619V41.7386C57.3361 41.7386 56.6794 41.9443 56.4917 42.3557V57.8769C56.6794 58.2883 57.3361 58.494 58.4619 58.494V59.142H51.6445V58.494C52.7703 58.494 53.427 58.2883 53.6146 57.8769V44.022L46.6095 59.142H46.1405L38.979 43.8369V57.8769C39.1666 58.2883 39.8234 58.494 40.9492 58.494V59.142H35.9455ZM70.0551 35.0117H73.37L68.554 40.0106H67.7409L70.0551 35.0117ZM61.0798 59.142V58.494C62.2056 58.494 62.8624 58.2883 63.05 57.8769V42.3557C62.8624 41.9443 62.2056 41.7386 61.0798 41.7386V41.0906H73.6827V44.0837H73.026C73.026 42.9729 72.8175 42.3249 72.4006 42.1397H65.9271V49.2369H70.3053C70.7223 49.0517 70.9307 48.4037 70.9307 47.2929H71.5875V52.23H70.9307C70.9307 51.1191 70.7223 50.4711 70.3053 50.286H65.9271V58.0929H73.0573C73.5785 57.8666 74.0476 57.2186 74.4646 56.1489H75.09L74.3395 59.142H61.0798ZM76.93 59.142V58.494C78.0558 58.494 78.7126 58.2883 78.9002 57.8769V42.3557C78.7126 41.9443 78.0558 41.7386 76.93 41.7386V41.0906H83.7475V41.7386C82.6217 41.7386 81.9649 41.9443 81.7773 42.3557V58.0929H88.9075C89.4287 57.8666 89.8978 57.2186 90.3147 56.1489H90.9402L90.1897 59.142H76.93ZM92.4137 59.142V58.494C93.5395 58.494 94.1962 58.2883 94.3838 57.8769V42.3557C94.1962 41.9443 93.5395 41.7386 92.4137 41.7386V41.0906H99.2311V41.7386C98.1053 41.7386 97.4486 41.9443 97.2609 42.3557V57.8769C97.4486 58.2883 98.1053 58.494 99.2311 58.494V59.142H92.4137ZM111.045 59.142V58.494C112.004 58.494 112.608 58.3706 112.858 58.1237L111.107 53.4026H105.103L103.477 57.9386C103.685 58.3089 104.331 58.494 105.416 58.494V59.142H100.287V58.494C101.454 58.494 102.111 58.278 102.257 57.846L108.324 41.0906H109.825L115.892 57.846C116.038 58.278 116.705 58.494 117.893 58.494V59.142H111.045ZM108.074 45.1946L105.478 52.3843H110.732L108.074 45.1946Z" fill="white"/>
<path d="M22.1515 33.428H18.2424V28.928L30.6212 19.928V7.71373H33.8788V17.3566L57.3333 1.28516L96.4242 28.928V33.428H92.5152V30.8566L57.3333 5.78516L22.1515 30.8566V33.428Z" fill="white" stroke="white"/>
</svg>
