<svg width="129" height="99" viewBox="0 0 129 99" fill="none" xmlns="http://www.w3.org/2000/svg">
<path d="M18.2424 66.8574V70.0717L57.3333 97.7146L96.4242 70.0717V66.8574H93.1667V68.1431L57.3333 93.2146L22.803 68.1431L22.1515 66.8574H18.2424Z" fill="#0D0D0D" stroke="white"/>
<path d="M10.8204 41.8321C9.02739 41.8321 7.53672 42.5624 6.34836 44.023C5.15999 45.4836 4.56581 47.3761 4.56581 49.7007C4.56581 52.4161 5.19126 54.5453 6.44217 56.0881C7.69308 57.631 9.19417 58.4024 10.9454 58.4024C11.9879 58.4024 13.0199 58.0527 14.0414 57.3533C15.063 56.6333 15.7197 55.8721 16.0116 55.0698L16.7622 55.4401C16.2827 56.5716 15.5217 57.5281 14.4793 58.3098C13.4577 59.071 12.0713 59.4516 10.32 59.4516C7.54714 59.4516 5.34763 58.567 3.72145 56.7978C2.11611 55.0081 1.31345 52.8687 1.31345 50.3795C1.31345 47.4995 2.2412 45.1853 4.09672 43.4367C5.97308 41.6676 8.20387 40.783 10.7891 40.783C11.3937 40.783 12.0921 40.9373 12.8844 41.2458C13.6766 41.5544 14.1353 41.7087 14.2604 41.7087C14.5105 41.7087 14.6356 41.503 14.6356 41.0916H15.3549L15.6676 45.0104H14.9796C14.8337 44.0847 14.4167 43.3236 13.7287 42.727C13.0616 42.1304 12.0921 41.8321 10.8204 41.8321ZM28.068 59.143V58.495C29.0271 58.495 29.6317 58.3716 29.8819 58.1247L28.1306 53.4036H22.1262L20.5 57.9396C20.7085 58.3098 21.3548 58.495 22.439 58.495V59.143H17.3102V58.495C18.4777 58.495 19.1345 58.279 19.2804 57.847L25.3473 41.0916H26.8484L32.9153 57.847C33.0613 58.279 33.7284 58.495 34.9168 58.495V59.143H28.068ZM25.0971 45.1956L22.5015 52.3853H27.7553L25.0971 45.1956ZM35.9455 59.143V58.495C37.0713 58.495 37.7281 58.2893 37.9157 57.8778V42.3567C37.7281 41.9453 37.0713 41.7396 35.9455 41.7396V41.0916H40.5113L47.1724 55.4401L53.8335 41.0916H58.4619V41.7396C57.3361 41.7396 56.6793 41.9453 56.4917 42.3567V57.8778C56.6793 58.2893 57.3361 58.495 58.4619 58.495V59.143H51.6444V58.495C52.7702 58.495 53.427 58.2893 53.6146 57.8778V44.023L46.6095 59.143H46.1404L38.979 43.8378V57.8778C39.1666 58.2893 39.8233 58.495 40.9492 58.495V59.143H35.9455ZM70.0551 35.0127H73.37L68.554 40.0116H67.7409L70.0551 35.0127ZM61.0798 59.143V58.495C62.2056 58.495 62.8623 58.2893 63.05 57.8778V42.3567C62.8623 41.9453 62.2056 41.7396 61.0798 41.7396V41.0916H73.6827V44.0847H73.026C73.026 42.9738 72.8175 42.3258 72.4005 42.1407H65.9271V49.2378H70.3053C70.7222 49.0527 70.9307 48.4047 70.9307 47.2938H71.5874V52.231H70.9307C70.9307 51.1201 70.7222 50.4721 70.3053 50.287H65.9271V58.0938H73.0573C73.5785 57.8675 74.0476 57.2196 74.4645 56.1498H75.09L74.3394 59.143H61.0798ZM76.93 59.143V58.495C78.0558 58.495 78.7125 58.2893 78.9002 57.8778V42.3567C78.7125 41.9453 78.0558 41.7396 76.93 41.7396V41.0916H83.7474V41.7396C82.6216 41.7396 81.9649 41.9453 81.7773 42.3567V58.0938H88.9074C89.4286 57.8675 89.8977 57.2196 90.3147 56.1498H90.9402L90.1896 59.143H76.93ZM92.4136 59.143V58.495C93.5394 58.495 94.1962 58.2893 94.3838 57.8778V42.3567C94.1962 41.9453 93.5394 41.7396 92.4136 41.7396V41.0916H99.2311V41.7396C98.1053 41.7396 97.4485 41.9453 97.2609 42.3567V57.8778C97.4485 58.2893 98.1053 58.495 99.2311 58.495V59.143H92.4136ZM111.045 59.143V58.495C112.004 58.495 112.608 58.3716 112.858 58.1247L111.107 53.4036H105.103L103.477 57.9396C103.685 58.3098 104.331 58.495 105.416 58.495V59.143H100.287V58.495C101.454 58.495 102.111 58.279 102.257 57.847L108.324 41.0916H109.825L115.892 57.847C116.038 58.279 116.705 58.495 117.893 58.495V59.143H111.045ZM108.074 45.1956L105.478 52.3853H110.732L108.074 45.1956Z" fill="#0D0D0D"/>
<path d="M22.1515 33.429H18.2424V28.929L30.6212 19.929V7.7147H33.8788V17.3576L57.3333 1.28613L96.4242 28.929V33.429H92.5152V30.8576L57.3333 5.78613L22.1515 30.8576V33.429Z" fill="#0D0D0D" stroke="white"/>
</svg>
