<svg width="74" height="14" viewBox="0 0 74 14" fill="none" xmlns="http://www.w3.org/2000/svg">
<path d="M7.25474 0.803717C7.2919 0.731153 7.3956 0.731153 7.43276 0.803717L9.27297 4.3976C9.2875 4.42597 9.31467 4.44572 9.34614 4.45076L13.3328 5.09034C13.4133 5.10325 13.4453 5.20188 13.3878 5.25964L10.5385 8.12036C10.516 8.14294 10.5056 8.17489 10.5105 8.20638L11.1342 12.1955C11.1468 12.2761 11.0629 12.337 10.9902 12.3002L7.38897 10.4743C7.36055 10.4599 7.32695 10.4599 7.29853 10.4743L3.69733 12.3002C3.62462 12.337 3.54072 12.2761 3.55331 12.1955L4.17698 8.20638C4.18191 8.17489 4.17153 8.14294 4.14904 8.12036L1.2997 5.25964C1.24217 5.20188 1.27422 5.10325 1.35471 5.09034L5.34136 4.45076C5.37283 4.44572 5.4 4.42597 5.41453 4.3976L7.25474 0.803717Z" fill="#E9A426"/>
<path d="M22.411 0.803717C22.4481 0.731153 22.5519 0.731153 22.589 0.803717L24.4292 4.3976C24.4437 4.42597 24.4709 4.44572 24.5024 4.45076L28.489 5.09034C28.5695 5.10325 28.6016 5.20188 28.544 5.25964L25.6947 8.12036C25.6722 8.14294 25.6618 8.17489 25.6668 8.20638L26.2904 12.1955C26.303 12.2761 26.2191 12.337 26.1464 12.3002L22.5452 10.4743C22.5168 10.4599 22.4832 10.4599 22.4548 10.4743L18.8536 12.3002C18.7809 12.337 18.697 12.2761 18.7096 12.1955L19.3332 8.20638C19.3382 8.17489 19.3278 8.14294 19.3053 8.12036L16.456 5.25964C16.3984 5.20188 16.4305 5.10325 16.511 5.09034L20.4976 4.45076C20.5291 4.44572 20.5563 4.42597 20.5708 4.3976L22.411 0.803717Z" fill="#E9A426"/>
<path d="M37.411 0.803717C37.4481 0.731153 37.5519 0.731153 37.589 0.803717L39.4292 4.3976C39.4437 4.42597 39.4709 4.44572 39.5024 4.45076L43.489 5.09034C43.5695 5.10325 43.6016 5.20188 43.544 5.25964L40.6947 8.12036C40.6722 8.14294 40.6618 8.17489 40.6668 8.20638L41.2904 12.1955C41.303 12.2761 41.2191 12.337 41.1464 12.3002L37.5452 10.4743C37.5168 10.4599 37.4832 10.4599 37.4548 10.4743L33.8536 12.3002C33.7809 12.337 33.697 12.2761 33.7096 12.1955L34.3332 8.20638C34.3382 8.17489 34.3278 8.14294 34.3053 8.12036L31.456 5.25964C31.3984 5.20188 31.4305 5.10325 31.511 5.09034L35.4976 4.45076C35.5291 4.44572 35.5563 4.42597 35.5708 4.3976L37.411 0.803717Z" fill="#E9A426"/>
<path d="M52.411 0.803717C52.4481 0.731153 52.5519 0.731153 52.589 0.803717L54.4292 4.3976C54.4437 4.42597 54.4709 4.44572 54.5024 4.45076L58.489 5.09034C58.5695 5.10325 58.6016 5.20188 58.544 5.25964L55.6947 8.12036C55.6722 8.14294 55.6618 8.17489 55.6668 8.20638L56.2904 12.1955C56.303 12.2761 56.2191 12.337 56.1464 12.3002L52.5452 10.4743C52.5168 10.4599 52.4832 10.4599 52.4548 10.4743L48.8536 12.3002C48.7809 12.337 48.697 12.2761 48.7096 12.1955L49.3332 8.20638C49.3382 8.17489 49.3278 8.14294 49.3053 8.12036L46.456 5.25964C46.3984 5.20188 46.4305 5.10325 46.511 5.09034L50.4976 4.45076C50.5291 4.44572 50.5563 4.42597 50.5708 4.3976L52.411 0.803717Z" fill="#E9A426"/>
<path d="M67.411 0.803717C67.4481 0.731153 67.5519 0.731153 67.589 0.803717L69.4292 4.3976C69.4437 4.42597 69.4709 4.44572 69.5024 4.45076L73.489 5.09034C73.5695 5.10325 73.6016 5.20188 73.544 5.25964L70.6947 8.12036C70.6722 8.14294 70.6618 8.17489 70.6668 8.20638L71.2904 12.1955C71.303 12.2761 71.2191 12.337 71.1464 12.3002L67.5452 10.4743C67.5168 10.4599 67.4832 10.4599 67.4548 10.4743L63.8536 12.3002C63.7809 12.337 63.697 12.2761 63.7096 12.1955L64.3332 8.20638C64.3382 8.17489 64.3278 8.14294 64.3053 8.12036L61.456 5.25964C61.3984 5.20188 61.4305 5.10325 61.511 5.09034L65.4976 4.45076C65.5291 4.44572 65.5563 4.42597 65.5708 4.3976L67.411 0.803717Z" fill="#CACDD8"/>
</svg>
