<svg width="60" height="62" viewBox="0 0 60 62" fill="none" xmlns="http://www.w3.org/2000/svg">
<path d="M5.625 32.9616C5.625 37.0978 8.43353 40.698 12.3936 41.2996C15.1089 41.7122 17.8538 42.0308 20.625 42.2521V54.25L31.4572 43.0567C31.734 42.7707 32.1132 42.6068 32.5112 42.5984C37.628 42.4899 42.666 42.0505 47.6062 41.3C51.5664 40.6983 54.375 37.0981 54.375 32.9619V17.4131C54.375 13.2769 51.5664 9.67672 47.6062 9.07508C41.8601 8.20212 35.9815 7.75 30.0007 7.75C24.0194 7.75 18.1403 8.2022 12.3937 9.07531C8.43354 9.677 5.625 13.2772 5.625 17.4133V32.9616Z" stroke="#3BA585" stroke-width="1.5" stroke-linecap="round" stroke-linejoin="round"/>
</svg>
