<svg width="23" height="18" viewBox="0 0 23 18" fill="none" xmlns="http://www.w3.org/2000/svg">
<g clip-path="url(#clip0_296_2960)">
<path d="M18.0167 17.7002L11.1167 14.5802L4.21667 17.7002H4.06333H3.91L3.83333 17.5802V17.4002L5.06 11.2202L0.0766667 7.0802L0 6.9602V6.7802L0.0766667 6.7202L0.23 6.6602L7.74333 5.5802L10.8867 0.420197C10.8867 0.380196 10.9122 0.340197 10.9633 0.300196H11.1167H11.27C11.3211 0.340197 11.3467 0.380196 11.3467 0.420197L14.49 5.5802L22.0033 6.6602L22.1567 6.7202L22.2333 6.7802C22.2333 6.8602 22.2333 6.9202 22.2333 6.9602L22.1567 7.0802L17.1733 11.2202L18.4 17.4002C18.4 17.4802 18.4 17.5402 18.4 17.5802L18.3233 17.7002H18.2467H18.0167Z" fill="#FECC00"/>
</g>
<defs>
<clipPath id="clip0_296_2960">
<rect width="23" height="18" fill="white" transform="matrix(1 0 0 -1 0 18)"/>
</clipPath>
</defs>
</svg>
