<svg width="16" height="16" viewBox="0 0 16 16" fill="none" xmlns="http://www.w3.org/2000/svg">
<g clip-path="url(#clip0_195_760)">
<path d="M12.5333 15.7334L7.73333 12.9601L2.93333 15.7334H2.82667H2.72L2.66667 15.6267V15.4667L3.52 9.9734L0.0533333 6.2934L0 6.18673V6.02673L0.0533333 5.9734L0.16 5.92006L5.38667 4.96006L7.57333 0.373398C7.57333 0.337843 7.59111 0.302287 7.62667 0.266731H7.73333H7.84C7.87556 0.302287 7.89333 0.337843 7.89333 0.373398L10.08 4.96006L15.3067 5.92006L15.4133 5.9734L15.4667 6.02673C15.4667 6.09784 15.4667 6.15118 15.4667 6.18673L15.4133 6.2934L11.9467 9.9734L12.8 15.4667C12.8 15.5378 12.8 15.5912 12.8 15.6267L12.7467 15.7334H12.6933H12.5333Z" fill="#FECC00"/>
</g>
<defs>
<clipPath id="clip0_195_760">
<rect width="16" height="16" fill="white" transform="matrix(1 0 0 -1 0 16)"/>
</clipPath>
</defs>
</svg>
