<svg width="19" height="18" viewBox="0 0 19 18" fill="none" xmlns="http://www.w3.org/2000/svg">
<g clip-path="url(#clip0_293_2848)">
<path d="M14.7873 17.6611L9.41133 14.555L4.03533 17.6611H3.91587H3.7964L3.73667 17.5417V17.3625L4.6924 11.2099L0.809733 7.08833L0.75 6.96887V6.78967L0.809733 6.72993L0.9292 6.6702L6.78307 5.595L9.23213 0.457932C9.23213 0.41811 9.25205 0.378286 9.29187 0.338465H9.41133H9.5308C9.57062 0.378286 9.59053 0.41811 9.59053 0.457932L12.0396 5.595L17.8935 6.6702L18.0129 6.72993L18.0727 6.78967C18.0727 6.86931 18.0727 6.92904 18.0727 6.96887L18.0129 7.08833L14.1303 11.2099L15.086 17.3625C15.086 17.4421 15.086 17.5018 15.086 17.5417L15.0263 17.6611H14.9665H14.7873Z" fill="#F1BF3E"/>
</g>
<defs>
<clipPath id="clip0_293_2848">
<rect width="17.92" height="18" fill="white" transform="matrix(1 0 0 -1 0.75 18)"/>
</clipPath>
</defs>
</svg>
