<svg width="38" height="40" viewBox="0 0 38 40" fill="none" xmlns="http://www.w3.org/2000/svg">
<g clip-path="url(#clip0_290_538)">
<path d="M19.475 24C18.9367 24 18.4857 23.808 18.1222 23.424C17.7574 23.0413 17.575 22.5667 17.575 22C17.575 21.4333 17.7574 20.958 18.1222 20.574C18.4857 20.1913 18.9367 20 19.475 20C20.0133 20 20.4649 20.1913 20.8297 20.574C21.1932 20.958 21.375 21.4333 21.375 22C21.375 22.5667 21.1932 23.0413 20.8297 23.424C20.4649 23.808 20.0133 24 19.475 24ZM11.875 24C11.3367 24 10.8851 23.808 10.5203 23.424C10.1568 23.0413 9.975 22.5667 9.975 22C9.975 21.4333 10.1568 20.958 10.5203 20.574C10.8851 20.1913 11.3367 20 11.875 20C12.4133 20 12.8649 20.1913 13.2297 20.574C13.5932 20.958 13.775 21.4333 13.775 22C13.775 22.5667 13.5932 23.0413 13.2297 23.424C12.8649 23.808 12.4133 24 11.875 24ZM27.075 24C26.5367 24 26.0857 23.808 25.7222 23.424C25.3574 23.0413 25.175 22.5667 25.175 22C25.175 21.4333 25.3574 20.958 25.7222 20.574C26.0857 20.1913 26.5367 20 27.075 20C27.6133 20 28.0643 20.1913 28.4278 20.574C28.7926 20.958 28.975 21.4333 28.975 22C28.975 22.5667 28.7926 23.0413 28.4278 23.424C28.0643 23.808 27.6133 24 27.075 24ZM19.475 32C18.9367 32 18.4857 31.808 18.1222 31.424C17.7574 31.0413 17.575 30.5667 17.575 30C17.575 29.4333 17.7574 28.9587 18.1222 28.576C18.4857 28.192 18.9367 28 19.475 28C20.0133 28 20.4649 28.192 20.8297 28.576C21.1932 28.9587 21.375 29.4333 21.375 30C21.375 30.5667 21.1932 31.0413 20.8297 31.424C20.4649 31.808 20.0133 32 19.475 32ZM11.875 32C11.3367 32 10.8851 31.808 10.5203 31.424C10.1568 31.0413 9.975 30.5667 9.975 30C9.975 29.4333 10.1568 28.9587 10.5203 28.576C10.8851 28.192 11.3367 28 11.875 28C12.4133 28 12.8649 28.192 13.2297 28.576C13.5932 28.9587 13.775 29.4333 13.775 30C13.775 30.5667 13.5932 31.0413 13.2297 31.424C12.8649 31.808 12.4133 32 11.875 32ZM27.075 32C26.5367 32 26.0857 31.808 25.7222 31.424C25.3574 31.0413 25.175 30.5667 25.175 30C25.175 29.4333 25.3574 28.9587 25.7222 28.576C26.0857 28.192 26.5367 28 27.075 28C27.6133 28 28.0643 28.192 28.4278 28.576C28.7926 28.9587 28.975 29.4333 28.975 30C28.975 30.5667 28.7926 31.0413 28.4278 31.424C28.0643 31.808 27.6133 32 27.075 32ZM6.175 40C5.13 40 4.2351 39.6087 3.4903 38.826C2.74677 38.042 2.375 37.1 2.375 36V8C2.375 6.9 2.74677 5.95867 3.4903 5.176C4.2351 4.392 5.13 4 6.175 4H8.075V0H11.875V4H27.075V0H30.875V4H32.775C33.82 4 34.7149 4.392 35.4597 5.176C36.2032 5.95867 36.575 6.9 36.575 8V36C36.575 37.1 36.2032 38.042 35.4597 38.826C34.7149 39.6087 33.82 40 32.775 40H6.175ZM6.175 36H32.775V16H6.175V36Z" fill="#AAAAAA"/>
</g>
<defs>
<clipPath id="clip0_290_538">
<rect width="38" height="40" fill="white"/>
</clipPath>
</defs>
</svg>
