<svg width="20" height="18" viewBox="0 0 20 18" fill="none" xmlns="http://www.w3.org/2000/svg">
<g clip-path="url(#clip0_296_2980)">
<path d="M15.6667 17.7002L9.66667 14.5802L3.66667 17.7002H3.53333H3.4L3.33333 17.5802V17.4002L4.4 11.2202L0.0666667 7.0802L0 6.9602V6.7802L0.0666667 6.7202L0.2 6.6602L6.73333 5.5802L9.46667 0.420197C9.46667 0.380196 9.48889 0.340197 9.53333 0.300196H9.66667H9.8C9.84445 0.340197 9.86667 0.380196 9.86667 0.420197L12.6 5.5802L19.1333 6.6602L19.2667 6.7202L19.3333 6.7802C19.3333 6.8602 19.3333 6.9202 19.3333 6.9602L19.2667 7.0802L14.9333 11.2202L16 17.4002C16 17.4802 16 17.5402 16 17.5802L15.9333 17.7002H15.8667H15.6667Z" fill="#FECC00"/>
</g>
<defs>
<clipPath id="clip0_296_2980">
<rect width="20" height="18" fill="white" transform="matrix(1 0 0 -1 0 18)"/>
</clipPath>
</defs>
</svg>
