<svg width="17" height="16" viewBox="0 0 17 16" fill="none" xmlns="http://www.w3.org/2000/svg">
<g clip-path="url(#clip0_296_2884)">
<path d="M13.3167 15.7334L8.21667 12.9601L3.11667 15.7334H3.00333H2.89L2.83333 15.6267V15.4667L3.74 9.9734L0.0566667 6.2934L0 6.18673V6.02673L0.0566667 5.9734L0.17 5.92006L5.72333 4.96006L8.04667 0.373398C8.04667 0.337843 8.06556 0.302287 8.10333 0.266731H8.21667H8.33C8.36778 0.302287 8.38667 0.337843 8.38667 0.373398L10.71 4.96006L16.2633 5.92006L16.3767 5.9734L16.4333 6.02673C16.4333 6.09784 16.4333 6.15118 16.4333 6.18673L16.3767 6.2934L12.6933 9.9734L13.6 15.4667C13.6 15.5378 13.6 15.5912 13.6 15.6267L13.5433 15.7334H13.4867H13.3167Z" fill="#FECC00"/>
</g>
<defs>
<clipPath id="clip0_296_2884">
<rect width="17" height="16" fill="white" transform="matrix(1 0 0 -1 0 16)"/>
</clipPath>
</defs>
</svg>
