<svg width="15" height="14" viewBox="0 0 15 14" fill="none" xmlns="http://www.w3.org/2000/svg">
<g clip-path="url(#clip0_195_771)">
<path d="M11.3866 13.7666L7.18659 11.3399L2.98659 13.7666H2.89326H2.79992L2.75326 13.6733V13.5333L3.49992 8.7266L0.466589 5.5066L0.419922 5.41327V5.27327L0.466589 5.2266L0.559922 5.17993L5.13326 4.33994L7.04659 0.326601C7.04659 0.29549 7.06214 0.26438 7.09326 0.233268H7.18659H7.27992C7.31103 0.26438 7.32659 0.29549 7.32659 0.326601L9.23992 4.33994L13.8133 5.17993L13.9066 5.2266L13.9533 5.27327C13.9533 5.33549 13.9533 5.38216 13.9533 5.41327L13.9066 5.5066L10.8733 8.7266L11.6199 13.5333C11.6199 13.5955 11.6199 13.6422 11.6199 13.6733L11.5733 13.7666H11.5266H11.3866Z" fill="#FECC00"/>
</g>
<defs>
<clipPath id="clip0_195_771">
<rect width="14" height="14" fill="white" transform="matrix(1 0 0 -1 0.419922 14)"/>
</clipPath>
</defs>
</svg>
