<svg width="19" height="16" viewBox="0 0 19 16" fill="none" xmlns="http://www.w3.org/2000/svg">
<g clip-path="url(#clip0_296_2888)">
<path d="M14.8833 15.7334L9.18333 12.9601L3.48333 15.7334H3.35667H3.23L3.16667 15.6267V15.4667L4.18 9.9734L0.0633333 6.2934L0 6.18673V6.02673L0.0633333 5.9734L0.19 5.92006L6.39667 4.96006L8.99333 0.373398C8.99333 0.337843 9.01444 0.302287 9.05667 0.266731H9.18333H9.31C9.35222 0.302287 9.37333 0.337843 9.37333 0.373398L11.97 4.96006L18.1767 5.92006L18.3033 5.9734L18.3667 6.02673C18.3667 6.09784 18.3667 6.15118 18.3667 6.18673L18.3033 6.2934L14.1867 9.9734L15.2 15.4667C15.2 15.5378 15.2 15.5912 15.2 15.6267L15.1367 15.7334H15.0733H14.8833Z" fill="#FECC00"/>
</g>
<defs>
<clipPath id="clip0_296_2888">
<rect width="19" height="16" fill="white" transform="matrix(1 0 0 -1 0 16)"/>
</clipPath>
</defs>
</svg>
