<svg width="22" height="18" viewBox="0 0 22 18" fill="none" xmlns="http://www.w3.org/2000/svg">
<g clip-path="url(#clip0_296_2954)">
<path d="M17.2333 17.7002L10.6333 14.5802L4.03333 17.7002H3.88667H3.74L3.66667 17.5802V17.4002L4.84 11.2202L0.0733333 7.0802L0 6.9602V6.7802L0.0733333 6.7202L0.22 6.6602L7.40667 5.5802L10.4133 0.420197C10.4133 0.380196 10.4378 0.340197 10.4867 0.300196H10.6333H10.78C10.8289 0.340197 10.8533 0.380196 10.8533 0.420197L13.86 5.5802L21.0467 6.6602L21.1933 6.7202L21.2667 6.7802C21.2667 6.8602 21.2667 6.9202 21.2667 6.9602L21.1933 7.0802L16.4267 11.2202L17.6 17.4002C17.6 17.4802 17.6 17.5402 17.6 17.5802L17.5267 17.7002H17.4533H17.2333Z" fill="#FECC00"/>
</g>
<defs>
<clipPath id="clip0_296_2954">
<rect width="22" height="18" fill="white" transform="matrix(1 0 0 -1 0 18)"/>
</clipPath>
</defs>
</svg>
