<svg width="19" height="18" viewBox="0 0 19 18" fill="none" xmlns="http://www.w3.org/2000/svg">
<g clip-path="url(#clip0_293_2840)">
<path d="M14.2273 17.6611L8.85128 14.555L3.47528 17.6611H3.35581H3.23634L3.17661 17.5417V17.3625L4.13234 11.2099L0.249675 7.08833L0.189941 6.96887V6.78967L0.249675 6.72993L0.369141 6.6702L6.22301 5.595L8.67208 0.457932C8.67208 0.41811 8.69199 0.378286 8.73181 0.338465H8.85128H8.97074C9.01056 0.378286 9.03048 0.41811 9.03048 0.457932L11.4795 5.595L17.3334 6.6702L17.4529 6.72993L17.5126 6.78967C17.5126 6.86931 17.5126 6.92904 17.5126 6.96887L17.4529 7.08833L13.5702 11.2099L14.5259 17.3625C14.5259 17.4421 14.5259 17.5018 14.5259 17.5417L14.4662 17.6611H14.4065H14.2273Z" fill="#F1BF3E"/>
</g>
<defs>
<clipPath id="clip0_293_2840">
<rect width="17.92" height="18" fill="white" transform="matrix(1 0 0 -1 0.189941 18)"/>
</clipPath>
</defs>
</svg>
