<svg width="21" height="18" viewBox="0 0 21 18" fill="none" xmlns="http://www.w3.org/2000/svg">
<g clip-path="url(#clip0_296_2952)">
<path d="M16.45 17.7002L10.15 14.5802L3.85 17.7002H3.71H3.57L3.5 17.5802V17.4002L4.62 11.2202L0.07 7.0802L0 6.9602V6.7802L0.07 6.7202L0.21 6.6602L7.07 5.5802L9.94 0.420197C9.94 0.380196 9.96333 0.340197 10.01 0.300196H10.15H10.29C10.3367 0.340197 10.36 0.380196 10.36 0.420197L13.23 5.5802L20.09 6.6602L20.23 6.7202L20.3 6.7802C20.3 6.8602 20.3 6.9202 20.3 6.9602L20.23 7.0802L15.68 11.2202L16.8 17.4002C16.8 17.4802 16.8 17.5402 16.8 17.5802L16.73 17.7002H16.66H16.45Z" fill="#FECC00"/>
</g>
<defs>
<clipPath id="clip0_296_2952">
<rect width="21" height="18" fill="white" transform="matrix(1 0 0 -1 0 18)"/>
</clipPath>
</defs>
</svg>
