<svg width="25" height="25" viewBox="0 0 25 25" fill="none" xmlns="http://www.w3.org/2000/svg">
<path fill-rule="evenodd" clip-rule="evenodd" d="M23.4546 17.2824C24.0877 17.2824 24.6095 17.7589 24.6808 18.3729L24.6891 18.5168V20.9857C24.6891 22.958 23.1474 24.5702 21.2033 24.6828L20.9857 24.6891L3.70336 24.6891C1.7311 24.6891 0.118926 23.1474 0.0062867 21.2033L0 20.9857L0 18.5168C0 17.8351 0.552684 17.2824 1.23445 17.2824C1.86753 17.2824 2.3893 17.7589 2.4606 18.3729L2.46891 18.5168L2.46891 20.9857C2.46891 21.6188 2.94546 22.1406 3.5594 22.2119L3.70336 22.2202L20.9857 22.2202C21.6188 22.2202 22.1406 21.7436 22.2119 21.1297L22.2202 20.9857V18.5168C22.2202 17.8351 22.7729 17.2824 23.4546 17.2824ZM12.1613 0.013601L12.2334 0.00493533L12.3445 0L12.4374 0.00344149L12.5923 0.0249855L12.7299 0.0613994L12.867 0.115636L12.9873 0.180225L13.1166 0.271196L13.2174 0.361563L16.9208 4.06493C17.4029 4.54701 17.4029 5.32863 16.9208 5.81071C16.4387 6.29279 15.6571 6.29279 15.175 5.81071L13.579 4.21443L13.579 16.0479C13.579 16.7297 13.0263 17.2824 12.3445 17.2824C11.6628 17.2824 11.1101 16.7297 11.1101 16.0479L11.1101 4.21443L9.51407 5.81071C9.03199 6.29279 8.25038 6.29279 7.76829 5.81071C7.28621 5.32863 7.28621 4.54701 7.76829 4.06493L11.4717 0.361563C11.5153 0.317871 11.5615 0.278139 11.6097 0.242366L11.747 0.153901L11.8862 0.0879247L12.0162 0.0442492L12.1613 0.013601Z" fill="#3F3F3F" fill-opacity="0.8"/>
</svg>
