<svg width="19" height="18" viewBox="0 0 19 18" fill="none" xmlns="http://www.w3.org/2000/svg">
<g clip-path="url(#clip0_293_2844)">
<path d="M15.0073 17.6611L9.6313 14.555L4.2553 17.6611H4.13584H4.01637L3.95664 17.5417V17.3625L4.91237 11.2099L1.0297 7.08833L0.969971 6.96887V6.78967L1.0297 6.72993L1.14917 6.6702L7.00304 5.595L9.4521 0.457932C9.4521 0.41811 9.47202 0.378286 9.51184 0.338465H9.6313H9.75077C9.79059 0.378286 9.8105 0.41811 9.8105 0.457932L12.2596 5.595L18.1134 6.6702L18.2329 6.72993L18.2926 6.78967C18.2926 6.86931 18.2926 6.92904 18.2926 6.96887L18.2329 7.08833L14.3502 11.2099L15.306 17.3625C15.306 17.4421 15.306 17.5018 15.306 17.5417L15.2462 17.6611H15.1865H15.0073Z" fill="#F1BF3E"/>
</g>
<defs>
<clipPath id="clip0_293_2844">
<rect width="17.92" height="18" fill="white" transform="matrix(1 0 0 -1 0.969971 18)"/>
</clipPath>
</defs>
</svg>
