<svg width="24" height="22" viewBox="0 0 24 22" fill="none" xmlns="http://www.w3.org/2000/svg">
<g clip-path="url(#clip0_296_2898)">
<path d="M18.8 21.6338L11.6 17.8205L4.4 21.6338H4.24H4.08L4 21.4871V21.2671L5.28 13.7138L0.08 8.65379L0 8.50712V8.28712L0.08 8.21379L0.24 8.14046L8.08 6.82046L11.36 0.51379C11.36 0.464901 11.3867 0.416012 11.44 0.367123H11.6H11.76C11.8133 0.416012 11.84 0.464901 11.84 0.51379L15.12 6.82046L22.96 8.14046L23.12 8.21379L23.2 8.28712C23.2 8.3849 23.2 8.45823 23.2 8.50712L23.12 8.65379L17.92 13.7138L19.2 21.2671C19.2 21.3649 19.2 21.4382 19.2 21.4871L19.12 21.6338H19.04H18.8Z" fill="#FECC00"/>
</g>
<defs>
<clipPath id="clip0_296_2898">
<rect width="24" height="22" fill="white" transform="matrix(1 0 0 -1 0 22)"/>
</clipPath>
</defs>
</svg>
