<svg width="18" height="18" viewBox="0 0 18 18" fill="none" xmlns="http://www.w3.org/2000/svg">
<g clip-path="url(#clip0_293_2842)">
<path d="M14.1173 17.6611L8.74129 14.555L3.36529 17.6611H3.24582H3.12636L3.06662 17.5417V17.3625L4.02236 11.2099L0.139689 7.08833L0.0799561 6.96887V6.78967L0.139689 6.72993L0.259156 6.6702L6.11302 5.595L8.56209 0.457932C8.56209 0.41811 8.582 0.378286 8.62182 0.338465H8.74129H8.86076C8.90058 0.378286 8.92049 0.41811 8.92049 0.457932L11.3696 5.595L17.2234 6.6702L17.3429 6.72993L17.4026 6.78967C17.4026 6.86931 17.4026 6.92904 17.4026 6.96887L17.3429 7.08833L13.4602 11.2099L14.416 17.3625C14.416 17.4421 14.416 17.5018 14.416 17.5417L14.3562 17.6611H14.2965H14.1173Z" fill="#F1BF3E"/>
</g>
<defs>
<clipPath id="clip0_293_2842">
<rect width="17.92" height="18" fill="white" transform="matrix(1 0 0 -1 0.0799561 18)"/>
</clipPath>
</defs>
</svg>
