<svg width="19" height="18" viewBox="0 0 19 18" fill="none" xmlns="http://www.w3.org/2000/svg">
<g clip-path="url(#clip0_293_2846)">
<path d="M14.8973 17.6611L9.52132 14.555L4.14532 17.6611H4.02585H3.90639L3.84665 17.5417V17.3625L4.80239 11.2099L0.919719 7.08833L0.859985 6.96887V6.78967L0.919719 6.72993L1.03919 6.6702L6.89305 5.595L9.34212 0.457932C9.34212 0.41811 9.36203 0.378286 9.40185 0.338465H9.52132H9.64079C9.68061 0.378286 9.70052 0.41811 9.70052 0.457932L12.1496 5.595L18.0035 6.6702L18.1229 6.72993L18.1827 6.78967C18.1827 6.86931 18.1827 6.92904 18.1827 6.96887L18.1229 7.08833L14.2403 11.2099L15.196 17.3625C15.196 17.4421 15.196 17.5018 15.196 17.5417L15.1363 17.6611H15.0765H14.8973Z" fill="#F1BF3E"/>
</g>
<defs>
<clipPath id="clip0_293_2846">
<rect width="17.92" height="18" fill="white" transform="matrix(1 0 0 -1 0.859985 18)"/>
</clipPath>
</defs>
</svg>
