<svg width="50" height="50" viewBox="0 0 50 50" fill="none" xmlns="http://www.w3.org/2000/svg">
<path fill-rule="evenodd" clip-rule="evenodd" d="M19.8211 11.3453C19.8735 10.9093 20.084 10.5077 20.4128 10.2166C20.7415 9.92542 21.1656 9.76497 21.6047 9.76562C22.5219 9.76562 23.3993 10.6094 23.3993 11.682C23.3993 12.1875 23.6282 12.6648 24.0297 12.9805C24.4211 13.2883 24.9352 13.4102 25.4329 13.2922H25.4344C25.8709 13.1893 26.3256 13.1919 26.7608 13.2996C27.1961 13.4074 27.5994 13.6173 27.9375 13.912C28.2755 14.2066 28.5385 14.5776 28.7046 14.994C28.8708 15.4105 28.9354 15.8606 28.893 16.307H20.9766C20.9521 16.3068 20.9276 16.3073 20.9032 16.3086H6.61176C6.93395 16.025 7.33209 15.842 7.75707 15.782C8.54067 15.6727 9.22348 14.9828 9.19457 14.093L9.19223 14.0133C9.20004 12.7398 10.5563 11.7289 12.0164 12.5055C12.0649 12.5328 12.1516 12.6031 12.3383 12.8375C12.4876 13.0227 12.6753 13.1733 12.8884 13.2791C13.1015 13.3848 13.3349 13.4431 13.5727 13.45C13.8075 13.4593 14.0415 13.4184 14.2593 13.33C14.477 13.2416 14.6733 13.1078 14.8352 12.9375C15.1321 12.6227 15.2743 12.4937 15.411 12.4273C16.0743 12.1148 16.7516 12.1875 17.2633 12.5273C17.4964 12.6819 17.7648 12.7751 18.0435 12.7983C18.3223 12.8215 18.6024 12.774 18.8579 12.6602L18.8727 12.6531C19.1298 12.535 19.3522 12.3526 19.5183 12.1235C19.6844 11.8944 19.7887 11.6264 19.8211 11.3453ZM14.8352 12.9375H14.8368L13.9813 12.1359L14.8352 12.9383V12.9375ZM23.625 18.6523L23.6977 18.65H26.3024L26.2985 18.6727C25.4532 23.1344 21.6789 26.3234 17.3836 26.3234C13.0875 26.3234 9.31332 23.1359 8.46957 18.6711L8.46567 18.6523H23.625ZM3.66098 18.043C3.5869 17.9078 3.54021 17.7594 3.52359 17.6061C3.50697 17.4529 3.52073 17.2979 3.5641 17.15L3.69692 16.6961L3.6977 16.6945C3.91622 15.9465 4.32291 15.2671 4.87891 14.721C5.43491 14.175 6.12164 13.7807 6.87348 13.5758C7.1727 10.8055 10.2125 8.88828 13.1211 10.4391L13.1235 10.4398C13.3266 10.5492 13.5024 10.6797 13.6532 10.8148C13.8625 10.6328 14.1118 10.4516 14.4024 10.3125L14.4071 10.3102C15.4891 9.79844 16.6711 9.75547 17.7141 10.1438C18.0052 9.34585 18.5347 8.65675 19.2306 8.16987C19.9266 7.68298 20.7554 7.42185 21.6047 7.42188C23.6313 7.42188 25.3016 8.96328 25.668 10.8883C25.8055 10.8773 25.9438 10.8719 26.0813 10.8719C29.2782 10.8719 31.8086 13.7859 31.1438 17.0875V17.0891C31.1115 17.24 31.0724 17.3893 31.0266 17.5367L31.0188 17.5641C31.016 17.5729 31.0131 17.5818 31.0102 17.5906L30.9375 17.8125L30.9586 17.8359C31.0684 17.9611 31.1503 18.1081 31.1988 18.2674C31.2473 18.4266 31.2613 18.5943 31.2399 18.7594L29.5602 31.7539C29.5252 32.0236 29.3975 32.2728 29.1989 32.4586C29.0004 32.6445 28.7433 32.7555 28.4719 32.7727L28.1961 32.7906H28.1899C27.1688 32.8516 26.3039 33.7438 26.3039 34.9102V41.4586C26.3039 41.7694 26.1805 42.0675 25.9607 42.2872C25.7409 42.507 25.4429 42.6305 25.1321 42.6305H9.47192C7.80395 42.6305 6.44613 41.3453 6.23442 39.7219L3.52504 18.757C3.49345 18.511 3.54078 18.2612 3.6602 18.0438L3.66098 18.043ZM8.55942 39.4195L6.02113 19.7789H6.31254C7.59457 24.943 12.125 28.6672 17.3836 28.6672C22.643 28.6672 27.1704 24.9406 28.4539 19.7805H28.7454L27.3532 30.5508C25.3719 31.0023 23.961 32.8227 23.961 34.9102V40.2867H9.47113C9.05395 40.2867 8.62738 39.9477 8.55863 39.4195H8.55942ZM30.8594 36.0039C30.8594 35.3922 31.4344 34.7656 32.3079 34.7656H43.0829C43.9571 34.7656 44.5313 35.3906 44.5313 36.0039V36.3297H30.8594V36.0039ZM32.3079 33.2031C30.7204 33.2031 29.2969 34.3875 29.2969 36.0039V37.1109C29.2969 37.2594 29.3383 37.3977 29.4102 37.5156C29.3375 37.6367 29.2992 37.7752 29.2993 37.9164V40.3445C29.2993 41.5023 30.2696 42.3828 31.3946 42.3828H43.9704C45.0954 42.3828 46.0641 41.5023 46.0672 40.3469V37.9164C46.0673 37.7832 46.0331 37.6522 45.968 37.5359C46.0503 37.4095 46.094 37.2618 46.0938 37.1109V36.0039C46.0938 34.3852 44.6704 33.2031 43.0829 33.2031H32.3079ZM40.4985 40.8203H39.8V38.6977H40.4985V40.8203ZM38.2375 40.8203V38.6977H37.3446V40.8203H38.2375ZM42.061 40.8203V38.6977H44.5047V40.343C44.5032 40.5766 44.2961 40.8203 43.9704 40.8203H42.061ZM33.3266 38.6977H30.8618V40.3445C30.8618 40.5758 31.068 40.8203 31.3946 40.8203H33.3258L33.3266 38.6977ZM34.8891 40.8203H35.7813V38.6977H34.8875V40.8203H34.8891Z" fill="#0D0D0D"/>
<path fill-rule="evenodd" clip-rule="evenodd" d="M5.87653 18.8004C6.10308 18.7771 6.32965 18.8446 6.50646 18.9881C6.68327 19.1317 6.79586 19.3395 6.8195 19.5661L6.8531 19.8864C6.87651 20.1132 6.80888 20.34 6.66507 20.5169C6.52127 20.6938 6.31308 20.8063 6.0863 20.8297C5.85952 20.8532 5.63272 20.7855 5.45581 20.6417C5.2789 20.4979 5.16635 20.2897 5.14294 20.0629L5.11013 19.7434C5.08675 19.5167 5.15436 19.2901 5.29808 19.1132C5.4418 18.9364 5.64987 18.8239 5.87653 18.8004Z" fill="#0D0D0D"/>
</svg>
