<svg width="50" height="50" viewBox="0 0 50 50" fill="none" xmlns="http://www.w3.org/2000/svg">
<path d="M42.0422 10.9375H7.95C6.15078 10.9375 4.6875 12.393 4.6875 14.1828V26.9492C4.6875 28.7391 6.15078 30.1945 7.95 30.1945H42.05C43.8492 30.1945 45.3125 28.7391 45.3125 26.9492V14.1828C45.3061 13.3197 44.9587 12.4942 44.3461 11.8863C43.7334 11.2783 42.9053 10.9373 42.0422 10.9375ZM43.05 26.9492C43.05 27.4984 42.6023 27.9438 42.05 27.9438H7.95C7.39766 27.9438 6.95 27.4984 6.95 26.9492V14.1828C6.95 13.6336 7.39766 13.1883 7.95 13.1883H42.05C42.6023 13.1883 43.05 13.6336 43.05 14.1828V26.9492Z" fill="#0D0D0D"/>
<path d="M39.811 23.6484H10.1797C9.55627 23.6484 9.05237 24.1492 9.05237 24.7703C9.05237 25.3906 9.55627 25.8914 10.1797 25.8914H39.8188C40.4422 25.8914 40.9461 25.3906 40.9461 24.7703C40.9461 24.1492 40.4344 23.6484 39.811 23.6484ZM39.9156 15.1211C39.2922 15.1211 38.7883 15.6227 38.7883 16.243V16.6172C38.7883 17.2375 39.2922 17.7383 39.9156 17.7383C40.5399 17.7383 41.0438 17.2375 41.0438 16.6172V16.243C41.0438 15.6227 40.5399 15.1211 39.9156 15.1211ZM39.9156 19.3688C39.2922 19.3688 38.7883 19.8703 38.7883 20.4906V20.8641C38.7883 21.4852 39.2922 21.9859 39.9156 21.9859C40.5399 21.9859 41.0438 21.4852 41.0438 20.8641V20.4906C41.0438 19.8781 40.5399 19.3688 39.9156 19.3688ZM13.0766 31.9133C12.933 31.877 12.7838 31.8694 12.6373 31.891C12.4908 31.9125 12.35 31.9628 12.223 32.0388C12.096 32.1149 11.9853 32.2153 11.8971 32.3342C11.809 32.4532 11.7452 32.5884 11.7094 32.732L10.8696 36.057C10.833 36.2004 10.8254 36.3497 10.8471 36.4961C10.8689 36.6425 10.9195 36.7831 10.9962 36.9097C11.0728 37.0363 11.1739 37.1464 11.2936 37.2335C11.4132 37.3207 11.549 37.3831 11.693 37.4172C11.9828 37.4868 12.2883 37.4399 12.544 37.2867C12.7996 37.1334 12.985 36.8861 13.0602 36.5977L13.9 33.2734C13.9357 33.13 13.9427 32.9809 13.9206 32.8348C13.8985 32.6886 13.8477 32.5483 13.7712 32.4218C13.6947 32.2953 13.5939 32.1852 13.4747 32.0978C13.3555 32.0104 13.2202 31.9482 13.0766 31.9133ZM21.0235 33.2094C20.8761 33.1958 20.7275 33.2116 20.5863 33.256C20.445 33.3004 20.3141 33.3724 20.201 33.4678C20.0878 33.5633 19.9948 33.6803 19.9273 33.812C19.8598 33.9437 19.8192 34.0876 19.8078 34.2352L19.5281 37.6562C19.4805 38.2766 19.936 38.8328 20.5594 38.8648C21.2078 38.9039 21.7266 38.4273 21.775 37.8391L22.0547 34.4188C22.111 33.8062 21.6469 33.2648 21.0235 33.2094ZM39.125 36.057L38.286 32.732C38.2113 32.4433 38.026 32.1956 37.7702 32.0424C37.5144 31.8892 37.2085 31.8428 36.9188 31.9133C36.7753 31.9482 36.6402 32.0112 36.5211 32.0985C36.402 32.1858 36.3013 32.2957 36.2248 32.422C36.1483 32.5483 36.0975 32.6885 36.0753 32.8344C36.0531 32.9804 36.0599 33.1293 36.0953 33.2727L36.9344 36.5977C37.0625 37.107 37.6141 37.5766 38.3016 37.4172C38.4453 37.3826 38.5808 37.3199 38.7002 37.2326C38.8195 37.1454 38.9204 37.0353 38.997 36.9088C39.0736 36.7824 39.1243 36.642 39.1463 36.4958C39.1682 36.3495 39.161 36.2004 39.125 36.057ZM30.4649 37.6562L30.1844 34.2352C30.1587 33.9383 30.0165 33.6636 29.7888 33.4714C29.5611 33.2791 29.2665 33.1849 28.9696 33.2094C28.822 33.2198 28.6779 33.2595 28.5459 33.3262C28.4138 33.3929 28.2963 33.4852 28.2003 33.5978C28.1043 33.7104 28.0317 33.841 27.9867 33.9819C27.9417 34.1229 27.9253 34.2714 27.9383 34.4188L28.218 37.8391C28.2656 38.4273 28.793 38.9047 29.4328 38.8648C30.0563 38.8258 30.5133 38.2766 30.4649 37.6562Z" fill="#0D0D0D"/>
</svg>
