<svg width="48" height="48" viewBox="0 0 48 48" fill="none" xmlns="http://www.w3.org/2000/svg">
<path d="M11.28 14.9795L28.8249 33.5671" stroke="#0D0D0D" stroke-width="1.4" stroke-miterlimit="22.93" stroke-linecap="round" stroke-linejoin="round"/>
<path d="M6.4469 11.5366L8.88 9.10352L14.5903 12.4966L9.93104 17.1311L6.45518 11.5366H6.4469Z" fill="#0D0D0D"/>
<path d="M4.89929 11.0239L7.3324 8.59082L13.0427 11.9756L8.38343 16.6267L4.89929 11.0239Z" stroke="#0D0D0D" stroke-width="1.4" stroke-miterlimit="22.93" stroke-linecap="round" stroke-linejoin="round"/>
<path d="M30.9021 29.3135L37.1421 35.5452C37.8784 36.2917 38.2913 37.298 38.2913 38.3466C38.2913 39.3951 37.8784 40.4015 37.1421 41.148C36.7792 41.5247 36.3441 41.8243 35.8628 42.029C35.3814 42.2337 34.8637 42.3392 34.3407 42.3392C33.8176 42.3392 33.3 42.2337 32.8186 42.029C32.3373 41.8243 31.9022 41.5247 31.5393 41.148L25.2993 34.9162L30.9021 29.3135Z" fill="white"/>
<path d="M32.971 29.3135L39.2028 35.5452C39.9391 36.2917 40.352 37.298 40.352 38.3466C40.352 39.3951 39.9391 40.4015 39.2028 41.148C38.8399 41.5247 38.4048 41.8243 37.9235 42.029C37.4421 42.2337 36.9244 42.3392 36.4014 42.3392C35.8783 42.3392 35.3607 42.2337 34.8793 42.029C34.398 41.8243 33.9629 41.5247 33.6 41.148L27.3683 34.9162L32.971 29.3135Z" fill="#0D0D0D"/>
<path d="M30.9021 29.3135L37.1421 35.5452C37.8784 36.2917 38.2913 37.298 38.2913 38.3466C38.2913 39.3951 37.8784 40.4015 37.1421 41.148C36.7792 41.5247 36.3441 41.8243 35.8628 42.029C35.3814 42.2337 34.8637 42.3392 34.3407 42.3392C33.8176 42.3392 33.3 42.2337 32.8186 42.029C32.3373 41.8243 31.9022 41.5247 31.5393 41.148L25.2993 34.9162L30.9021 29.3135Z" stroke="#0D0D0D" stroke-width="1.4" stroke-miterlimit="22.93" stroke-linecap="round" stroke-linejoin="round"/>
<path d="M28.2124 12.4385L6.09926 34.0136C5.40758 34.711 5.02084 35.6542 5.02394 36.6364C5.02705 37.6185 5.41974 38.5594 6.11581 39.2523L6.17374 39.3102C6.86805 40.0059 7.80921 40.3989 8.79207 40.4035C9.77493 40.4082 10.7198 40.0241 11.4206 39.335L33.542 17.7516L28.2124 12.455V12.4385Z" fill="white" stroke="#0D0D0D" stroke-width="1.4" stroke-miterlimit="10" stroke-linecap="round" stroke-linejoin="round"/>
<path d="M37.5642 24.4472C38.0773 24.4472 38.5573 24.2485 38.9214 23.8844L42.5959 20.2099C43.3407 19.4651 43.3407 18.2403 42.5959 17.4954L40.9904 15.8899C40.9295 15.8284 40.8553 15.7815 40.7736 15.7528C40.6919 15.7241 40.6047 15.7144 40.5187 15.7244L39.0869 15.8734C38.9751 15.8867 38.8616 15.8744 38.7551 15.8375C38.6487 15.8007 38.552 15.7401 38.4723 15.6604C38.3926 15.5807 38.3321 15.484 38.2952 15.3776C38.2583 15.2711 38.246 15.1577 38.2594 15.0458L38.4249 13.6223C38.4343 13.5351 38.4244 13.4468 38.3958 13.3638C38.3672 13.2808 38.3206 13.2052 38.2594 13.1423L33.6 8.48302C32.2321 7.10076 30.5027 6.13139 28.6097 5.68578C27.8814 5.52026 27.1614 5.4375 26.458 5.4375C24.7614 5.4375 23.4787 5.90922 22.6842 6.32302C22.3118 6.51336 21.0952 7.19198 21.0952 7.8375C21.0952 8.02784 21.178 8.19336 21.3104 8.30922C21.418 8.40026 21.5587 8.44991 21.7159 8.44991H21.749L22.4028 8.43336C25.7959 8.43336 27.3352 9.94784 28.0138 11.0651L25.4814 13.6141C25.4267 13.6678 25.3837 13.7324 25.3553 13.8036C25.3268 13.8748 25.3134 13.9512 25.3159 14.0278C25.3159 14.1934 25.3656 14.3341 25.4814 14.4499L31.2414 20.1685C31.3904 20.3092 31.5973 20.3672 31.8042 20.3175L33.6249 19.8458C33.7429 19.8136 33.8671 19.8109 33.9864 19.8381C34.1057 19.8653 34.2165 19.9214 34.309 20.0016C34.4014 20.0818 34.4727 20.1835 34.5165 20.2978C34.5603 20.4121 34.5752 20.5354 34.56 20.6568L34.4359 21.8072C34.4194 21.9809 34.4773 22.1547 34.6014 22.2872L36.2069 23.8844C36.3846 24.0634 36.5961 24.2054 36.8291 24.302C37.0621 24.3986 37.3119 24.448 37.5642 24.4472Z" fill="white" stroke="#0D0D0D" stroke-width="1.4" stroke-miterlimit="10" stroke-linecap="round" stroke-linejoin="round"/>
</svg>
