<svg width="50" height="50" viewBox="0 0 50 50" fill="none" xmlns="http://www.w3.org/2000/svg">
<path fill-rule="evenodd" clip-rule="evenodd" d="M6.25 7.71406C6.25 6.90469 6.90469 6.25 7.71406 6.25H42.2859C43.0984 6.25 43.7422 6.90859 43.75 7.70312V11.6492C43.75 12.1805 43.4688 12.6445 43.0469 12.9016V39.3906C43.0469 39.9631 42.9341 40.53 42.715 41.0589C42.496 41.5878 42.1749 42.0684 41.77 42.4732C41.3652 42.878 40.8847 43.1991 40.3558 43.4182C39.8269 43.6372 39.26 43.75 38.6875 43.75H11.3125C10.1563 43.75 9.0475 43.2907 8.22996 42.4732C7.41241 41.6556 6.95312 40.5468 6.95312 39.3906V12.9016C6.53125 12.6445 6.25 12.1805 6.25 11.65V7.71406ZM8.32578 8.32578V11.093C8.73516 11.232 9.02891 11.6195 9.02891 12.0758V39.3914C9.02891 39.6913 9.08798 39.9882 9.20275 40.2652C9.31752 40.5422 9.48574 40.7939 9.6978 41.0059C9.90986 41.2179 10.1616 41.386 10.4387 41.5007C10.7157 41.6154 11.0127 41.6743 11.3125 41.6742H38.6875C39.2929 41.6742 39.8736 41.4337 40.3017 41.0056C40.7298 40.5775 40.9703 39.9968 40.9703 39.3914V12.0758C40.9703 11.6195 41.2648 11.232 41.6742 11.093V8.32578H8.32578Z" fill="#0D0D0D"/>
<path fill-rule="evenodd" clip-rule="evenodd" d="M7.10308 12.1682C7.10308 11.5947 7.56792 11.1299 8.14058 11.1299H41.8593C42.1346 11.1299 42.3986 11.2392 42.5932 11.4339C42.7879 11.6285 42.8972 11.8925 42.8972 12.1678C42.8972 12.443 42.7879 12.707 42.5932 12.9017C42.3986 13.0963 42.1346 13.2057 41.8593 13.2057H8.14058C7.86541 13.2057 7.60152 13.0964 7.40695 12.9018C7.21238 12.7072 7.10308 12.4433 7.10308 12.1682ZM12.0234 15.9533C12.0234 15.3807 12.4882 14.9158 13.0625 14.9158H41.9843C42.2596 14.9158 42.5236 15.0252 42.7182 15.2198C42.9129 15.4145 43.0222 15.6784 43.0222 15.9537C43.0222 16.229 42.9129 16.493 42.7182 16.6876C42.5236 16.8823 42.2596 16.9916 41.9843 16.9916H13.0625C12.9261 16.9918 12.791 16.9651 12.6649 16.9131C12.5389 16.861 12.4243 16.7846 12.3278 16.6883C12.2313 16.5919 12.1547 16.4775 12.1025 16.3515C12.0503 16.2255 12.0234 16.0897 12.0234 15.9533ZM6.97339 20.7494C6.97339 20.176 7.43823 19.7119 8.01089 19.7119H41.9843C42.2595 19.7119 42.5234 19.8212 42.7179 20.0158C42.9125 20.2104 43.0218 20.4743 43.0218 20.7494C43.0218 21.0246 42.9125 21.2885 42.7179 21.483C42.5234 21.6776 42.2595 21.7869 41.9843 21.7869H8.01089C7.73573 21.7869 7.47183 21.6776 7.27727 21.483C7.0827 21.2885 6.97339 21.0246 6.97339 20.7494ZM6.97339 25.2189C6.97339 24.6463 7.43823 24.1814 8.01089 24.1814H41.9124C42.1877 24.1814 42.4517 24.2908 42.6463 24.4854C42.841 24.6801 42.9503 24.9441 42.9503 25.2193C42.9503 25.4946 42.841 25.7586 42.6463 25.9532C42.4517 26.1479 42.1877 26.2572 41.9124 26.2572H8.01089C7.73573 26.2572 7.47183 26.1479 7.27727 25.9534C7.0827 25.7588 6.97339 25.4941 6.97339 25.2189Z" fill="#0D0D0D"/>
<path fill-rule="evenodd" clip-rule="evenodd" d="M33.8563 6.4668C34.4289 6.4668 34.8938 6.93164 34.8938 7.50508V32.9465C34.8938 33.2218 34.7844 33.4857 34.5898 33.6804C34.3951 33.875 34.1311 33.9844 33.8559 33.9844C33.5806 33.9844 33.3166 33.875 33.122 33.6804C32.9273 33.4857 32.818 33.2218 32.818 32.9465V7.50508C32.818 6.93164 33.2828 6.4668 33.8563 6.4668Z" fill="#0D0D0D"/>
<path fill-rule="evenodd" clip-rule="evenodd" d="M33.8555 34.4371C33.5399 34.4371 33.2373 34.5625 33.0141 34.7856C32.791 35.0087 32.6656 35.3114 32.6656 35.627C32.6656 35.9425 32.791 36.2452 33.0141 36.4683C33.2373 36.6914 33.5399 36.8168 33.8555 36.8168C34.1711 36.8168 34.4739 36.6914 34.6971 36.4682C34.9203 36.245 35.0457 35.9422 35.0457 35.6266C35.0457 35.3109 34.9203 35.0082 34.6971 34.7849C34.4739 34.5617 34.1711 34.4363 33.8555 34.4363V34.4371ZM36.8164 35.627C36.8164 36.4122 36.5045 37.1654 35.9492 37.7207C35.3939 38.2759 34.6408 38.5879 33.8555 38.5879C33.0702 38.5879 32.3171 38.2759 31.7618 37.7207C31.2065 37.1654 30.8945 36.4122 30.8945 35.627C30.8945 34.8417 31.2065 34.0885 31.7618 33.5333C32.3171 32.978 33.0702 32.666 33.8555 32.666C34.6408 32.666 35.3939 32.978 35.9492 33.5333C36.5045 34.0885 36.8164 34.8417 36.8164 35.627Z" fill="#0D0D0D"/>
</svg>
