<svg width="50" height="50" viewBox="0 0 50 50" fill="none" xmlns="http://www.w3.org/2000/svg">
<path d="M26.0117 44.9922H23.9883C23.7109 44.9922 23.4727 44.893 23.2742 44.6945C23.1786 44.6021 23.103 44.491 23.0519 44.3682C23.0008 44.2454 22.9755 44.1134 22.9773 43.9805C22.9773 43.7031 23.0758 43.4648 23.2742 43.2664C23.4727 43.068 23.7109 42.9688 23.9883 42.9688H26.0117C26.2891 42.9688 26.5273 43.068 26.7258 43.2656C26.9242 43.4648 27.0227 43.7031 27.0227 43.9805C27.0227 44.2578 26.9242 44.4961 26.7258 44.6945C26.5273 44.893 26.2891 44.9922 26.0117 44.9922ZM25 4.36719C23.3203 4.36719 21.7406 4.69141 20.2594 5.33906C18.8073 5.95407 17.4871 6.84291 16.3711 7.95703C15.2734 9.05469 14.407 10.3445 13.7727 11.8258C13.1375 13.307 12.8203 14.8867 12.8203 16.5664C12.8203 17.6375 12.9266 18.6492 13.1375 19.6016C13.3492 20.5406 13.5875 21.3672 13.8523 22.0812C14.1164 22.7953 14.3609 23.3641 14.5859 23.7867C14.8109 24.2102 14.9359 24.4414 14.9625 24.4813C15.2273 24.9312 15.525 25.4992 15.8555 26.1875C16.1859 26.875 16.4437 27.4633 16.6289 27.9531L18.2555 32.2773C18.3742 32.6078 18.5469 32.918 18.7711 33.2094C19.0094 33.5 19.2742 33.7578 19.5648 33.9828C19.3488 34.2418 19.1808 34.5373 19.0688 34.8555C18.9616 35.1819 18.908 35.5236 18.9102 35.8672C18.9102 36.2508 18.9766 36.6211 19.1086 36.9781C19.2539 37.3219 19.4461 37.6266 19.6836 37.8906C19.4461 38.1555 19.2539 38.4656 19.1086 38.8227C18.9758 39.1664 18.9102 39.5305 18.9102 39.9141C18.9102 40.7602 19.207 41.4812 19.8031 42.0758C20.3977 42.6711 21.1117 42.9688 21.9453 42.9688H28.0547C28.8883 42.9688 29.6016 42.6719 30.1969 42.0758C30.7922 41.4812 31.0898 40.7602 31.0898 39.9141C31.0898 39.5305 31.0172 39.1664 30.8711 38.8227C30.7473 38.4795 30.559 38.1631 30.3164 37.8906C30.5539 37.6258 30.7391 37.3219 30.8711 36.9781C31.0161 36.6257 31.0905 36.2483 31.0898 35.8672C31.0898 35.5102 31.0305 35.1734 30.9109 34.8555C30.8113 34.5361 30.6496 34.2395 30.4352 33.9828C30.7249 33.7591 30.9848 33.4991 31.2086 33.2094C31.4392 32.9313 31.6204 32.6158 31.7445 32.2766L33.3711 27.9523C33.543 27.4633 33.7938 26.8742 34.125 26.1867C34.4103 25.6083 34.7146 25.0395 35.0375 24.4813C35.0641 24.4422 35.1891 24.2102 35.4141 23.7867C35.6391 23.3641 35.8836 22.7945 36.1484 22.0812C36.4405 21.2712 36.679 20.4429 36.8625 19.6016C37.0784 18.6044 37.1848 17.5867 37.1797 16.5664C37.1797 14.8867 36.8625 13.307 36.2273 11.8258C35.6151 10.3777 34.7255 9.06346 33.6086 7.95703C32.5026 6.84058 31.1888 5.95123 29.7414 5.33906C28.2586 4.69062 26.6781 4.36719 25 4.36719ZM28.0547 40.9453H21.9453C21.6672 40.9453 21.4297 40.8461 21.2313 40.6484C21.1341 40.5528 21.0576 40.4384 21.0064 40.3121C20.9552 40.1858 20.9304 40.0503 20.9336 39.9141C20.9336 39.6359 21.0328 39.3984 21.2305 39.2C21.4297 39.0016 21.668 38.9023 21.9453 38.9023H28.0547C28.3328 38.9023 28.5703 39.0016 28.7688 39.1992C28.9672 39.3984 29.0664 39.6367 29.0664 39.9141C29.0664 40.2047 28.9672 40.4492 28.7695 40.6484C28.5703 40.8461 28.332 40.9453 28.0547 40.9453ZM29.0664 35.8672C29.0664 36.1453 28.9672 36.3828 28.7695 36.5812C28.5703 36.7797 28.332 36.8789 28.0547 36.8789H21.9453C21.6672 36.8789 21.4297 36.7797 21.2313 36.582C21.1354 36.4896 21.0595 36.3784 21.0083 36.2555C20.9572 36.1325 20.9317 36.0004 20.9336 35.8672C20.9336 35.5766 21.0328 35.332 21.2305 35.1328C21.4297 34.9352 21.668 34.8359 21.9453 34.8359H28.0547C28.3328 34.8359 28.5703 34.9352 28.7688 35.1328C28.9672 35.332 29.0664 35.5766 29.0664 35.8672ZM33.2914 23.4297C32.9399 24.0466 32.609 24.6751 32.2992 25.3141C31.988 25.9473 31.7101 26.5964 31.4664 27.2586L29.8398 31.5633C29.7211 31.8938 29.4766 32.1844 29.1055 32.4359C28.7492 32.6867 28.3984 32.8125 28.0547 32.8125H21.9453C21.6016 32.8125 21.2445 32.6875 20.8742 32.4359C20.5172 32.1844 20.2789 31.8938 20.1602 31.5625L18.5336 27.2578C18.3352 26.7031 18.0508 26.0547 17.6805 25.3141C17.3819 24.6732 17.0577 24.0445 16.7086 23.4297C16.6953 23.4297 16.5891 23.2445 16.3906 22.875C16.156 22.3891 15.9443 21.8925 15.7562 21.3867C15.5039 20.6718 15.2919 19.9433 15.1211 19.2047C14.9325 18.338 14.8395 17.4533 14.8438 16.5664C14.8438 15.1648 15.1078 13.8492 15.6375 12.6188C16.1797 11.3766 16.907 10.2984 17.8195 9.38594C18.7477 8.45852 19.8451 7.71779 21.0523 7.20391C22.2828 6.675 23.5984 6.41016 25 6.41016C26.4016 6.41016 27.7172 6.675 28.9477 7.20391C30.1508 7.71478 31.2424 8.45604 32.1609 9.38594C33.0941 10.3093 33.8356 11.408 34.343 12.6188C34.8852 13.8492 35.1562 15.1648 35.1562 16.5664C35.1562 17.4922 35.057 18.3711 34.8594 19.2047C34.7002 19.9463 34.4879 20.6755 34.2242 21.3867C33.9992 22.0086 33.7875 22.5039 33.5891 22.8742C33.4039 23.2445 33.3039 23.4297 33.2914 23.4297Z" fill="#0D0D0D"/>
</svg>
