<svg width="50" height="50" viewBox="0 0 50 50" fill="none" xmlns="http://www.w3.org/2000/svg">
<path fill-rule="evenodd" clip-rule="evenodd" d="M37.6937 12.5163L33.5554 27.0233C33.4328 27.453 32.8953 27.6061 32.5882 27.2991L28.1226 22.8335L30.6851 20.271C30.7794 20.1766 30.8542 20.0645 30.9051 19.9413C30.9561 19.818 30.9823 19.6859 30.9823 19.5524C30.9822 19.419 30.9558 19.2869 30.9047 19.1637C30.8536 19.0405 30.7787 18.9285 30.6843 18.8342C30.5899 18.74 30.4779 18.6652 30.3546 18.6142C30.2313 18.5632 30.0992 18.537 29.9658 18.5371C29.8324 18.5372 29.7003 18.5635 29.5771 18.6146C29.4538 18.6657 29.3419 18.7406 29.2476 18.835L26.6867 21.3975L22.221 16.9319C21.914 16.6249 22.0671 16.0882 22.4968 15.9647L37.0031 11.8264C37.099 11.7977 37.2009 11.7954 37.298 11.8199C37.3951 11.8444 37.4838 11.8947 37.5546 11.9655C37.6254 12.0363 37.6757 12.125 37.7002 12.2221C37.7247 12.3192 37.7225 12.4204 37.6937 12.5163ZM25.0296 23.0546L20.564 18.5889C19.0281 17.053 19.7945 14.3671 21.9437 13.7538L36.4492 9.6155C36.9293 9.46978 37.44 9.45719 37.9267 9.57907C38.4134 9.70095 38.8578 9.95272 39.2126 10.3075C39.5674 10.6623 39.8192 11.1068 39.9411 11.5935C40.0629 12.0802 40.0504 12.5909 39.9046 13.071L35.7664 27.5764C35.1531 29.7249 32.4664 30.4921 30.9304 28.9561L26.4656 24.4905L21.9773 28.9796C21.883 29.0739 21.771 29.1488 21.6477 29.1999C21.5245 29.2509 21.3924 29.2772 21.2589 29.2772C21.1255 29.2772 20.9934 29.2509 20.8701 29.1999C20.7469 29.1488 20.6349 29.0739 20.5406 28.9796L19.9124 28.3507L18.9828 29.2803C18.9052 29.3581 18.8154 29.4227 18.7171 29.4717C19.4015 30.5999 19.4054 31.9092 18.6351 32.6803L13.1101 38.2046C12.157 39.1577 10.3796 38.9264 9.13979 37.6866C7.90073 36.4475 7.6687 34.6694 8.62182 33.7163L14.146 28.1921C14.9171 27.421 16.2265 27.4249 17.3554 28.11C17.4023 28.0139 17.4664 27.9241 17.546 27.8444L19.1945 26.196C19.3849 26.0056 19.6432 25.8987 19.9124 25.8987C20.1817 25.8987 20.44 26.0056 20.6304 26.196L21.2585 26.8249L25.0296 23.0546ZM11.6734 36.7678L17.1976 31.2436C17.5414 30.8999 17.457 30.26 17.0109 29.8139C16.5656 29.3678 15.9249 29.2842 15.5812 29.6272L10.0578 35.1522C9.71401 35.4952 9.7976 36.135 10.2437 36.5819C10.6898 37.0272 11.3296 37.1108 11.6734 36.7678Z" fill="#0D0D0D"/>
</svg>
