<svg width="24" height="24" viewBox="0 0 24 24" fill="none" xmlns="http://www.w3.org/2000/svg">
<path d="M6.56293 19.1324C6.53076 19.32 6.60787 19.5095 6.76185 19.6214C6.91582 19.7333 7.11995 19.748 7.28841 19.6595L12 17.1824L16.7116 19.6595C16.8801 19.748 17.0842 19.7333 17.2382 19.6214C17.3921 19.5095 17.4692 19.32 17.4371 19.1324L16.5372 13.8859L20.349 10.1704C20.4853 10.0375 20.5343 9.83884 20.4755 9.65783C20.4167 9.47683 20.2602 9.3449 20.0719 9.31754L14.8042 8.55209L12.4484 3.77872C12.3641 3.60805 12.1903 3.5 12 3.5C11.8097 3.5 11.6359 3.60805 11.5516 3.77872L9.19584 8.55209L3.92811 9.31754C3.73977 9.3449 3.58329 9.47683 3.52448 9.65783C3.46567 9.83884 3.51472 10.0375 3.651 10.1704L7.46277 13.8859L6.56293 19.1324Z" fill="#FFEA52" stroke="#F6BA50" stroke-linecap="round" stroke-linejoin="round"/>
</svg>
