<svg width="50" height="50" viewBox="0 0 50 50" fill="none" xmlns="http://www.w3.org/2000/svg">
<path fill-rule="evenodd" clip-rule="evenodd" d="M45.3125 21.9727C45.3125 21.1594 44.9894 20.3794 44.4144 19.8044C43.8393 19.2293 43.0594 18.9063 42.2461 18.9063H31.7711C31.5915 18.9063 31.4192 18.8349 31.2921 18.7079C31.1651 18.5808 31.0938 18.4085 31.0938 18.2289V16.7508C31.4897 16.613 31.8329 16.3555 32.0758 16.0138C32.3186 15.6721 32.4491 15.2633 32.4491 14.8441C32.4491 14.4249 32.3186 14.0162 32.0758 13.6745C31.8329 13.3328 31.4897 13.0752 31.0938 12.9375V7.75391C31.0938 6.94078 30.7708 6.16095 30.1959 5.58591C29.621 5.01087 28.8413 4.68771 28.0281 4.6875H21.9727C21.1594 4.6875 20.3794 5.01057 19.8044 5.58563C19.2293 6.16069 18.9063 6.94064 18.9063 7.75391V12.9352C18.6234 13.0312 18.3672 13.1922 18.1562 13.4039C17.9637 13.5907 17.811 13.8146 17.7073 14.0621C17.6037 14.3096 17.5512 14.5755 17.5531 14.8438C17.5549 15.2623 17.686 15.67 17.9283 16.0112C18.1706 16.3524 18.5125 16.6104 18.907 16.75V18.2289C18.907 18.4085 18.8357 18.5808 18.7086 18.7079C18.5816 18.8349 18.4093 18.9063 18.2297 18.9063H7.75391C6.94064 18.9063 6.16069 19.2293 5.58563 19.8044C5.01057 20.3794 4.6875 21.1594 4.6875 21.9727V28.0273C4.6875 28.8406 5.01057 29.6206 5.58563 30.1956C6.16069 30.7707 6.94064 31.0938 7.75391 31.0938H23.9297L26.2688 28.7523C26.2974 28.7232 26.3345 28.7041 26.3748 28.6976C26.4151 28.6911 26.4565 28.6977 26.4928 28.7164C26.5291 28.735 26.5584 28.7648 26.5766 28.8014C26.5948 28.8379 26.6008 28.8793 26.5938 28.9195L26.2313 31.0938H42.2453C42.648 31.0939 43.0468 31.0146 43.4188 30.8606C43.7909 30.7066 44.129 30.4808 44.4138 30.1962C44.6986 29.9115 44.9246 29.5735 45.0788 29.2015C45.233 28.8295 45.3124 28.4308 45.3125 28.0281V21.9727ZM23.3703 29.7398H7.575C7.37358 29.7399 7.17411 29.7003 6.988 29.6233C6.80189 29.5463 6.63278 29.4333 6.49036 29.2909C6.34793 29.1485 6.23497 28.9794 6.15794 28.7933C6.0809 28.6071 6.0413 28.4077 6.04141 28.2062V21.7938C6.04141 20.9469 6.72813 20.2602 7.575 20.2602H18.2289C18.7676 20.2602 19.2843 20.0462 19.6652 19.6652C20.0462 19.2843 20.2602 18.7676 20.2602 18.2289V16.875H29.7398V18.2289C29.7398 18.7676 29.9538 19.2843 30.3348 19.6652C30.7157 20.0462 31.2324 20.2602 31.7711 20.2602H42.425C43.2719 20.2602 43.9586 20.9469 43.9586 21.7938V28.2062C43.9587 28.4077 43.9191 28.6071 43.8421 28.7933C43.765 28.9794 43.6521 29.1485 43.5096 29.2909C43.3672 29.4333 43.1981 29.5463 43.012 29.6233C42.8259 29.7003 42.6264 29.7399 42.425 29.7398H27.8313L28.3305 26.7406C28.4531 26.0047 27.5594 25.5453 27.032 26.0734L23.3703 29.7398ZM20.2609 7.575C20.2609 6.72813 20.9469 6.04141 21.7938 6.04141H28.2062C29.0531 6.04141 29.7398 6.72813 29.7398 7.575V12.8125H20.2602L20.2609 7.575ZM19.1141 14.3617C19.1749 14.2991 19.2478 14.2495 19.3284 14.216C19.409 14.1824 19.4955 14.1655 19.5828 14.1664H30.4164C30.596 14.1664 30.7683 14.2378 30.8954 14.3648C31.0224 14.4918 31.0938 14.6641 31.0938 14.8438C31.0938 15.0234 31.0224 15.1957 30.8954 15.3227C30.7683 15.4497 30.596 15.5211 30.4164 15.5211H19.5836C19.404 15.5211 19.2317 15.4497 19.1046 15.3227C18.9776 15.1957 18.9063 15.0234 18.9063 14.8438C18.9063 14.6609 18.9812 14.4867 19.1141 14.3617Z" fill="#0D0D0D" stroke="#0D0D0D" stroke-width="0.8"/>
<path d="M25.557 34.0943C25.4947 34.0041 25.4115 33.9303 25.3144 33.8793C25.2173 33.8284 25.1093 33.8018 24.9996 33.8018C24.89 33.8018 24.7819 33.8284 24.6848 33.8793C24.5878 33.9303 24.5045 34.0041 24.4422 34.0943C24.0836 34.6146 20.9375 39.2271 20.9375 41.2498C20.9375 42.3272 21.3655 43.3605 22.1274 44.1224C22.8892 44.8843 23.9226 45.3123 25 45.3123C26.0774 45.3123 27.1108 44.8843 27.8726 44.1224C28.6345 43.3605 29.0625 42.3272 29.0625 41.2498C29.0625 39.2271 25.9156 34.6146 25.557 34.0943ZM25 43.9584C24.6443 43.9584 24.2921 43.8883 23.9635 43.7522C23.6348 43.6161 23.3363 43.4165 23.0847 43.165C22.8332 42.9135 22.6337 42.6149 22.4976 42.2863C22.3615 41.9577 22.2914 41.6055 22.2914 41.2498C22.2914 40.2091 23.7813 37.5755 25 35.6974C26.2188 37.5755 27.7086 40.2099 27.7086 41.2498C27.7086 41.6055 27.6385 41.9577 27.5024 42.2863C27.3663 42.6149 27.1668 42.9135 26.9153 43.165C26.6637 43.4165 26.3652 43.6161 26.0365 43.7522C25.7079 43.8883 25.3557 43.9584 25 43.9584Z" fill="#0D0D0D" stroke="#0D0D0D" stroke-width="0.8"/>
</svg>
