<svg width="50" height="50" viewBox="0 0 50 50" fill="none" xmlns="http://www.w3.org/2000/svg">
<path fill-rule="evenodd" clip-rule="evenodd" d="M14.029 5.41426L18.5774 10.2939C19.2812 9.93729 20.0813 9.81762 20.8586 9.95278C21.6359 10.0879 22.3487 10.4707 22.8907 11.0439L22.8962 11.0502L26.3985 14.815C26.5259 14.951 26.611 15.1197 26.6462 15.2994C27.1569 15.1768 27.6908 15.1907 28.1945 15.3396C28.6981 15.4885 29.1538 15.7673 29.5157 16.1479L29.5173 16.1494L37.8126 24.7869L37.8321 24.8072C38.4651 25.5051 38.8879 26.3677 39.0518 27.2954C39.2158 28.2232 39.1141 29.1785 38.7587 30.051L38.7571 30.0564L33.9681 41.6205C33.9071 41.7924 33.8368 41.9572 33.7649 42.1127L33.7626 42.1182C33.4499 42.7801 33.0098 43.3739 32.4676 43.8658C31.9253 44.3576 31.2915 44.7379 30.6023 44.9847C29.9131 45.2316 29.182 45.3403 28.4508 45.3046C27.7196 45.2689 27.0026 45.0896 26.3407 44.7768C25.0084 44.1472 23.9796 43.0158 23.4792 41.6298C22.9788 40.2438 23.0476 38.7161 23.6704 37.3807L25.7587 32.2775L20.0259 26.3682C19.4404 25.7409 19.07 24.9436 18.9681 24.0916C18.8663 23.2397 19.0384 22.3774 19.4595 21.6299C19.3695 21.5788 19.288 21.5139 19.2181 21.4377L15.7438 17.6799C15.2092 17.0993 14.8768 16.3613 14.7961 15.5762C14.7154 14.791 14.8908 14.0009 15.2962 13.3236L10.7415 8.4377L10.7282 8.42207C10.5314 8.20272 10.3798 7.94663 10.2823 7.66852C10.1848 7.39041 10.1431 7.09576 10.1598 6.80152C10.1765 6.50727 10.2512 6.21923 10.3796 5.95394C10.508 5.68865 10.6875 5.45135 10.9079 5.25567C11.3433 4.86379 11.9164 4.66051 12.5014 4.69038C13.0864 4.72026 13.6358 4.98085 14.029 5.41504V5.41426ZM26.5024 17.5939L21.5884 22.1111C21.1917 22.4774 20.9561 22.9865 20.933 23.5259C20.9098 24.0653 21.1011 24.592 21.4649 24.9908L27.6423 31.358C27.9181 31.6424 27.9993 32.0627 27.8493 32.4291L25.504 38.158C25.4978 38.1745 25.4907 38.1907 25.4829 38.2064C25.2772 38.6472 25.1634 39.1253 25.1485 39.6115C25.1336 40.0977 25.2179 40.5818 25.3962 41.0344C25.5746 41.487 25.8432 41.8985 26.1858 42.2438C26.5283 42.5891 26.9376 42.8611 27.3887 43.0431C27.8398 43.2251 28.3233 43.3133 28.8096 43.3023C29.2959 43.2914 29.7748 43.1815 30.2173 42.9794C30.6597 42.7773 31.0564 42.4872 31.383 42.1267C31.7097 41.7663 31.9595 41.3431 32.1173 40.883L36.9142 29.2994L36.9149 29.2971C37.1271 28.7746 37.1881 28.2029 37.0908 27.6474C36.9936 27.0919 36.742 26.575 36.3649 26.1557L28.0782 17.526L28.0743 17.5221C27.8938 17.3317 27.646 17.2197 27.3838 17.2099C27.1217 17.2001 26.8661 17.2934 26.672 17.4697C26.6188 17.5174 26.5626 17.5588 26.5032 17.5932L26.5024 17.5939ZM12.2243 6.75098C12.2315 6.74462 12.2385 6.73811 12.2454 6.73145C12.2894 6.69382 12.3464 6.67502 12.4042 6.67911C12.4619 6.6832 12.5158 6.70986 12.554 6.75332L12.5665 6.76661L17.7024 12.2768C17.8821 12.469 18.1305 12.5824 18.3935 12.5923C18.6564 12.6023 18.9126 12.508 19.1063 12.3299C19.4279 12.0341 19.853 11.8765 20.2897 11.8913C20.7264 11.906 21.1398 12.0919 21.4407 12.4088L24.2587 15.4377L20.0063 19.3549L17.2095 16.3291C16.9132 16.007 16.7556 15.5811 16.7708 15.1437C16.786 14.7063 16.9728 14.2924 17.2907 13.9916C17.6892 13.615 17.7087 12.9885 17.3353 12.5885L12.2087 7.08848C12.1674 7.04102 12.1459 6.97946 12.1488 6.9166C12.1518 6.85374 12.1788 6.79442 12.2243 6.75098Z" fill="#0D0D0D"/>
</svg>
