<svg width="50" height="50" viewBox="0 0 50 50" fill="none" xmlns="http://www.w3.org/2000/svg">
<path d="M40.2344 12.5H39.2227V11.4883C39.2227 10.6422 38.9258 9.92109 38.3305 9.32578C37.7352 8.73125 37.0141 8.43359 36.168 8.43359H7.74219C6.89609 8.43359 6.175 8.73047 5.58047 9.32656C4.98438 9.92031 4.6875 10.6414 4.6875 11.4875V15.5539C4.6875 16.3875 4.98438 17.1008 5.58047 17.6961C6.175 18.2914 6.89609 18.5891 7.74219 18.5891H36.168C37.0141 18.5891 37.7352 18.2922 38.3297 17.6961C38.925 17.1016 39.2227 16.3875 39.2227 15.5539V14.5227H40.2344C40.5117 14.5227 40.75 14.6219 40.9484 14.8195C41.1469 15.0187 41.2453 15.2633 41.2453 15.5539V19.6008C41.2453 19.8914 41.1469 20.1359 40.9484 20.3352C40.8559 20.4306 40.7448 20.5062 40.622 20.5573C40.4993 20.6083 40.3673 20.6338 40.2344 20.632H23.9883C23.1422 20.632 22.4211 20.9297 21.8266 21.525C21.2312 22.1195 20.9336 22.8336 20.9336 23.6672V26.9008C20.3516 27.0992 19.8687 27.4625 19.4852 27.9914C19.1039 28.5004 18.9017 29.1212 18.9102 29.757V39.9133C18.9102 40.7594 19.207 41.4805 19.8031 42.075C20.3977 42.6703 21.1117 42.968 21.9453 42.968C22.7914 42.968 23.5125 42.6711 24.107 42.075C24.7031 41.4812 25 40.7602 25 39.9141V29.7578C25 29.0961 24.8086 28.5078 24.425 27.9922C24.0414 27.4633 23.5578 27.1 22.9766 26.9016V23.6672C22.9766 23.3898 23.0758 23.1516 23.2742 22.9539C23.4727 22.7555 23.7109 22.6562 23.9883 22.6562H40.2344C41.0805 22.6562 41.8016 22.3594 42.3969 21.7633C42.9914 21.1687 43.2891 20.4477 43.2891 19.6016V15.5547C43.2891 14.7086 42.9922 13.9875 42.3969 13.393C41.8016 12.7969 41.0805 12.5 40.2344 12.5ZM37.1797 15.5547C37.1797 15.8328 37.0805 16.0703 36.882 16.2687C36.6836 16.4672 36.4453 16.5664 36.168 16.5664H7.74219C7.45156 16.5664 7.20703 16.4672 7.00781 16.2695C6.91211 16.177 6.83639 16.0658 6.78533 15.9429C6.73427 15.8199 6.70895 15.6878 6.71094 15.5547V11.4883C6.71094 11.2109 6.81016 10.9727 7.00781 10.7742C7.20703 10.5758 7.45156 10.4773 7.74219 10.4773H36.168C36.4453 10.4773 36.6836 10.5758 36.882 10.7742C37.0805 10.9727 37.1789 11.2109 37.1789 11.4883L37.1797 15.5547ZM22.9766 39.9141C22.9766 40.2047 22.8773 40.4492 22.6797 40.6484C22.4805 40.8461 22.2359 40.9453 21.9453 40.9453C21.6672 40.9453 21.4297 40.8461 21.2313 40.6484C21.1341 40.5529 21.0576 40.4384 21.0064 40.3121C20.9552 40.1858 20.9304 40.0503 20.9336 39.9141V29.7578C20.9336 29.4797 21.0328 29.2422 21.2305 29.0437C21.4297 28.8453 21.668 28.7461 21.9453 28.7461C22.2359 28.7461 22.4805 28.8453 22.6797 29.043C22.8773 29.2422 22.9766 29.4805 22.9766 29.7578V39.9141Z" fill="#0D0D0D"/>
</svg>
