<svg width="58" height="58" viewBox="0 0 58 58" fill="none" xmlns="http://www.w3.org/2000/svg">
<g clip-path="url(#clip0_119_371)">
<path fill-rule="evenodd" clip-rule="evenodd" d="M23.51 29.87L28.708 26.537L33.907 29.87L32.523 24.215L37.118 19.834L31.864 19.391H31.318L28.998 14.127L26.488 19.297L20.718 19.834L24.92 23.727L23.51 29.87Z" fill="white"/>
<path fill-rule="evenodd" clip-rule="evenodd" d="M23.51 29.953L28.708 26.62L33.907 29.953L32.523 24.298L37.118 19.917L31.864 19.474H31.318L28.998 14.21L26.488 19.38L20.718 19.917L24.92 23.81L23.51 29.953Z" fill="white"/>
<path d="M22.0117 52.9922H19.9883C19.7109 52.9922 19.4727 52.893 19.2742 52.6945C19.1786 52.6021 19.103 52.491 19.0519 52.3682C19.0008 52.2454 18.9755 52.1134 18.9773 51.9805C18.9773 51.7031 19.0758 51.4648 19.2742 51.2664C19.4727 51.068 19.7109 50.9688 19.9883 50.9688H22.0117C22.2891 50.9688 22.5273 51.068 22.7258 51.2656C22.9242 51.4648 23.0227 51.7031 23.0227 51.9805C23.0227 52.2578 22.9242 52.4961 22.7258 52.6945C22.5273 52.893 22.2891 52.9922 22.0117 52.9922ZM21 12.3672C19.3203 12.3672 17.7406 12.6914 16.2594 13.3391C14.8073 13.9541 13.4871 14.8429 12.3711 15.957C11.2734 17.0547 10.407 18.3445 9.77266 19.8258C9.1375 21.307 8.82031 22.8867 8.82031 24.5664C8.82031 25.6375 8.92656 26.6492 9.1375 27.6016C9.34922 28.5406 9.5875 29.3672 9.85234 30.0812C10.1164 30.7953 10.3609 31.3641 10.5859 31.7867C10.8109 32.2102 10.9359 32.4414 10.9625 32.4813C11.2273 32.9312 11.525 33.4992 11.8555 34.1875C12.1859 34.875 12.4437 35.4633 12.6289 35.9531L14.2555 40.2773C14.3742 40.6078 14.5469 40.918 14.7711 41.2094C15.0094 41.5 15.2742 41.7578 15.5648 41.9828C15.3488 42.2418 15.1808 42.5373 15.0688 42.8555C14.9616 43.1819 14.908 43.5236 14.9102 43.8672C14.9102 44.2508 14.9766 44.6211 15.1086 44.9781C15.2539 45.3219 15.4461 45.6266 15.6836 45.8906C15.4461 46.1555 15.2539 46.4656 15.1086 46.8227C14.9758 47.1664 14.9102 47.5305 14.9102 47.9141C14.9102 48.7602 15.207 49.4812 15.8031 50.0758C16.3977 50.6711 17.1117 50.9688 17.9453 50.9688H24.0547C24.8883 50.9688 25.6016 50.6719 26.1969 50.0758C26.7922 49.4812 27.0898 48.7602 27.0898 47.9141C27.0898 47.5305 27.0172 47.1664 26.8711 46.8227C26.7473 46.4795 26.559 46.1631 26.3164 45.8906C26.5539 45.6258 26.7391 45.3219 26.8711 44.9781C27.0161 44.6257 27.0905 44.2483 27.0898 43.8672C27.0898 43.5102 27.0305 43.1734 26.9109 42.8555C26.8113 42.5361 26.6496 42.2395 26.4352 41.9828C26.7249 41.7591 26.9848 41.4991 27.2086 41.2094C27.4392 40.9313 27.6204 40.6158 27.7445 40.2766L29.3711 35.9523C29.543 35.4633 29.7938 34.8742 30.125 34.1867C30.4103 33.6083 30.7146 33.0395 31.0375 32.4813C31.0641 32.4422 31.1891 32.2102 31.4141 31.7867C31.6391 31.3641 31.8836 30.7945 32.1484 30.0812C32.4405 29.2712 32.679 28.4429 32.8625 27.6016C33.0784 26.6044 33.1848 25.5867 33.1797 24.5664C33.1797 22.8867 32.8625 21.307 32.2273 19.8258C31.6151 18.3777 30.7255 17.0635 29.6086 15.957C28.5026 14.8406 27.1888 13.9512 25.7414 13.3391C24.2586 12.6906 22.6781 12.3672 21 12.3672ZM24.0547 48.9453H17.9453C17.6672 48.9453 17.4297 48.8461 17.2313 48.6484C17.1341 48.5528 17.0576 48.4384 17.0064 48.3121C16.9552 48.1858 16.9304 48.0503 16.9336 47.9141C16.9336 47.6359 17.0328 47.3984 17.2305 47.2C17.4297 47.0016 17.668 46.9023 17.9453 46.9023H24.0547C24.3328 46.9023 24.5703 47.0016 24.7688 47.1992C24.9672 47.3984 25.0664 47.6367 25.0664 47.9141C25.0664 48.2047 24.9672 48.4492 24.7695 48.6484C24.5703 48.8461 24.332 48.9453 24.0547 48.9453ZM25.0664 43.8672C25.0664 44.1453 24.9672 44.3828 24.7695 44.5812C24.5703 44.7797 24.332 44.8789 24.0547 44.8789H17.9453C17.6672 44.8789 17.4297 44.7797 17.2313 44.582C17.1354 44.4896 17.0595 44.3784 17.0083 44.2555C16.9572 44.1325 16.9317 44.0004 16.9336 43.8672C16.9336 43.5766 17.0328 43.332 17.2305 43.1328C17.4297 42.9352 17.668 42.8359 17.9453 42.8359H24.0547C24.3328 42.8359 24.5703 42.9352 24.7688 43.1328C24.9672 43.332 25.0664 43.5766 25.0664 43.8672ZM29.2914 31.4297C28.9399 32.0466 28.609 32.6751 28.2992 33.3141C27.988 33.9473 27.7101 34.5964 27.4664 35.2586L25.8398 39.5633C25.7211 39.8938 25.4766 40.1844 25.1055 40.4359C24.7492 40.6867 24.3984 40.8125 24.0547 40.8125H17.9453C17.6016 40.8125 17.2445 40.6875 16.8742 40.4359C16.5172 40.1844 16.2789 39.8938 16.1602 39.5625L14.5336 35.2578C14.3352 34.7031 14.0508 34.0547 13.6805 33.3141C13.3819 32.6732 13.0577 32.0445 12.7086 31.4297C12.6953 31.4297 12.5891 31.2445 12.3906 30.875C12.156 30.3891 11.9443 29.8925 11.7562 29.3867C11.5039 28.6718 11.2919 27.9433 11.1211 27.2047C10.9325 26.338 10.8395 25.4533 10.8438 24.5664C10.8438 23.1648 11.1078 21.8492 11.6375 20.6188C12.1797 19.3766 12.907 18.2984 13.8195 17.3859C14.7477 16.4585 15.8451 15.7178 17.0523 15.2039C18.2828 14.675 19.5984 14.4102 21 14.4102C22.4016 14.4102 23.7172 14.675 24.9477 15.2039C26.1508 15.7148 27.2424 16.456 28.1609 17.3859C29.0941 18.3093 29.8356 19.408 30.343 20.6188C30.8852 21.8492 31.1562 23.1648 31.1562 24.5664C31.1562 25.4922 31.057 26.3711 30.8594 27.2047C30.7002 27.9463 30.4879 28.6755 30.2242 29.3867C29.9992 30.0086 29.7875 30.5039 29.5891 30.8742C29.4039 31.2445 29.3039 31.4297 29.2914 31.4297Z" fill="#0D0D0D"/>
</g>
<defs>
<clipPath id="clip0_119_371">
<rect width="58" height="58" fill="white"/>
</clipPath>
</defs>
</svg>
