<svg width="50" height="50" viewBox="0 0 50 50" fill="none" xmlns="http://www.w3.org/2000/svg">
<path d="M25.0023 6.34922V37.6969M8.45312 6.25H41.5469C42.7641 6.25 43.75 7.10391 43.75 8.15859V40.7656C43.75 41.8203 42.7641 42.6742 41.5469 42.6742H8.45312C7.23594 42.6742 6.25 41.8195 6.25 40.7656V8.15859C6.25 7.10391 7.23594 6.25 8.45312 6.25Z" stroke="#0D0D0D" stroke-width="2.5" stroke-linecap="round" stroke-linejoin="round"/>
<path d="M9.45073 42.6738H13.1851C13.5226 42.6738 13.796 42.9105 13.796 43.202V43.2215C13.796 43.5137 13.5226 43.7496 13.1859 43.7496H9.45151C9.11401 43.7496 8.84058 43.5137 8.84058 43.2215V43.202C8.8437 42.9105 9.11636 42.6738 9.45073 42.6738ZM18.9164 25.7691V23.1559C18.9164 22.8402 19.2117 22.584 19.5765 22.584H19.671C20.0359 22.584 20.3312 22.8402 20.3312 23.1559V25.7691C20.3312 26.0848 20.0359 26.3402 19.671 26.3402H19.5765C19.2117 26.3402 18.9164 26.0848 18.9164 25.7691ZM29.6734 25.7691V23.1559C29.6734 22.8402 29.9687 22.584 30.3335 22.584H30.4289C30.7937 22.584 31.089 22.8402 31.089 23.1559V25.7691C31.089 26.0848 30.7937 26.3402 30.4289 26.3402H30.3335C29.9687 26.3402 29.6734 26.0848 29.6734 25.7691ZM36.8179 42.6738H40.5531C40.8906 42.6738 41.1625 42.9105 41.1625 43.202V43.2215C41.1625 43.5137 40.8906 43.7496 40.5531 43.7496H36.8187C36.4812 43.7496 36.2085 43.5137 36.2085 43.2215V43.202C36.2085 42.9105 36.482 42.6738 36.8179 42.6738Z" stroke="#0D0D0D" stroke-width="2.5" stroke-linecap="round" stroke-linejoin="round"/>
</svg>
