<svg width="50" height="50" viewBox="0 0 50 50" fill="none" xmlns="http://www.w3.org/2000/svg">
<path d="M42.5547 35.7284L33.2531 26.4253C32.7283 25.9072 32.1174 25.4842 31.4477 25.1753C30.7469 24.8448 30.1187 24.68 29.5633 24.68C29.4438 24.68 29.3383 24.6667 29.2461 24.6409C29.1833 24.622 29.1232 24.5952 29.0672 24.5612V23.6682C29.0672 23.3901 28.968 23.1526 28.7703 22.9542C28.6777 22.8582 28.5665 22.7823 28.4434 22.7311C28.3203 22.6799 28.188 22.6545 28.0547 22.6565C27.9094 22.6565 27.7703 22.6831 27.6383 22.7362C27.5195 22.7886 27.4133 22.8612 27.3211 22.9542L26.0117 24.2636L12.225 10.4768L12.5227 10.18C12.7211 9.98075 12.8203 9.74247 12.8203 9.46512C12.8203 9.1745 12.7211 8.92997 12.5234 8.73075L8.45625 4.66512C8.36069 4.56794 8.24622 4.49139 8.11991 4.44019C7.9936 4.38899 7.85813 4.36424 7.72187 4.36747C7.44453 4.36747 7.20625 4.46668 7.00859 4.66434L4.98438 6.70887C4.78672 6.90653 4.6875 7.14481 4.6875 7.42215C4.6875 7.6995 4.78672 7.93778 4.98438 8.13622L9.05156 12.2026C9.14375 12.3089 9.25 12.3878 9.36875 12.4409C9.50156 12.48 9.63359 12.5003 9.76562 12.5003C9.89844 12.5003 10.0234 12.4807 10.1422 12.4409C10.275 12.3878 10.3875 12.3081 10.4797 12.2026L10.7766 11.9057L24.5844 25.7112L23.275 27.0206C23.1831 27.1119 23.1089 27.2194 23.0562 27.3378C23.0025 27.4631 22.9759 27.5983 22.9781 27.7347C22.9781 28.012 23.0766 28.2503 23.275 28.4487C23.4734 28.6472 23.7117 28.7456 23.9891 28.7456H24.882C24.9174 28.808 24.944 28.8751 24.9609 28.9448C24.9875 29.0237 25.0008 29.13 25.0008 29.262C25.0008 29.8175 25.1664 30.4456 25.4969 31.1464C25.8273 31.8472 26.2375 32.4425 26.7266 32.9315L36.05 42.255C36.3406 42.5456 36.6711 42.7706 37.0422 42.9292C37.425 43.0745 37.8156 43.1479 38.2117 43.1479C38.5953 43.1479 38.9727 43.0745 39.3422 42.9292C39.721 42.7741 40.065 42.5449 40.3539 42.255L42.5563 40.0534C43.1508 39.4581 43.4484 38.737 43.4484 37.8909C43.4484 37.0448 43.1516 36.3237 42.5563 35.7284H42.5547ZM7.14766 7.42215L7.74297 6.82684L10.3617 9.44559L9.76641 10.0409L7.14687 7.42215H7.14766ZM27.0234 29.262C27.0288 28.8253 26.9409 28.3925 26.7656 27.9925C26.5937 27.6097 26.3617 27.305 26.0711 27.08L27.4 25.7511C27.6397 26.0537 27.945 26.2979 28.293 26.4651C28.6758 26.637 29.0992 26.7229 29.5625 26.7229C29.8266 26.7229 30.1836 26.8354 30.6328 27.0604C31.0675 27.2525 31.4642 27.5211 31.8039 27.8534L37.775 33.8245L34.1445 37.4745L28.1742 31.5034C27.8396 31.1615 27.5647 30.7659 27.3609 30.3331C27.1359 29.8706 27.0234 29.512 27.0234 29.262ZM41.1273 38.6058L38.925 40.8065C38.8294 40.9037 38.7149 40.9802 38.5886 41.0314C38.4623 41.0826 38.3269 41.1074 38.1906 41.1042C37.9133 41.1042 37.675 41.005 37.4773 40.8073L35.5727 38.9026L39.2227 35.2722L41.1273 37.1768C41.3258 37.3753 41.4242 37.6136 41.4242 37.8909C41.4242 38.1682 41.325 38.4073 41.1273 38.6058Z" fill="#0D0D0D"/>
</svg>
