<svg width="16" height="24" viewBox="0 0 16 24" fill="none" xmlns="http://www.w3.org/2000/svg">
<g clip-path="url(#clip0_296_2629)">
<path d="M12.5333 16.7324L7.73333 13.9591L2.93333 16.7324H2.82667H2.72L2.66667 16.6258V16.4658L3.52 10.9724L0.0533333 7.29242L0 7.18575V7.02575L0.0533333 6.97242L0.16 6.91909L5.38667 5.95909L7.57333 1.37242C7.57333 1.33687 7.59111 1.30131 7.62667 1.26575H7.73333H7.84C7.87556 1.30131 7.89333 1.33687 7.89333 1.37242L10.08 5.95909L15.3067 6.91909L15.4133 6.97242L15.4667 7.02575C15.4667 7.09687 15.4667 7.1502 15.4667 7.18575L15.4133 7.29242L11.9467 10.9724L12.8 16.4658C12.8 16.5369 12.8 16.5902 12.8 16.6258L12.7467 16.7324H12.6933H12.5333Z" fill="#FECC00"/>
</g>
<defs>
<clipPath id="clip0_296_2629">
<rect width="16" height="16" fill="white" transform="matrix(1 0 0 -1 0 17)"/>
</clipPath>
</defs>
</svg>
