<svg width="47" height="47" viewBox="0 0 47 47" fill="none" xmlns="http://www.w3.org/2000/svg">
<g clip-path="url(#clip0_264_1068)">
<path d="M31.333 7.83301C32.414 7.83301 33.2913 8.71034 33.2913 9.79134V18.0163L43.5001 10.8684C43.9427 10.559 44.5537 10.6667 44.8651 11.1113C44.9787 11.2758 45.0413 11.4716 45.0413 11.6713V35.328C45.0413 35.8685 44.6027 36.3072 44.0622 36.3072C43.8605 36.3072 43.6646 36.2445 43.5001 36.1309L33.2913 28.983V37.208C33.2913 38.289 32.414 39.1663 31.333 39.1663H3.91634C2.83534 39.1663 1.95801 38.289 1.95801 37.208V9.79134C1.95801 8.71034 2.83534 7.83301 3.91634 7.83301H31.333ZM15.6663 15.6663V21.5413H9.79134V25.458H15.6644L15.6663 31.333H19.583L19.581 25.458H25.458V21.5413H19.583V15.6663H15.6663Z" fill="#3BA585"/>
</g>
<defs>
<clipPath id="clip0_264_1068">
<rect width="47" height="47" fill="white"/>
</clipPath>
</defs>
</svg>
