<svg width="28" height="27" viewBox="0 0 28 27" fill="none" xmlns="http://www.w3.org/2000/svg">
<g clip-path="url(#clip0_296_2872)">
<path d="M13.6574 25.4531C12.7028 25.4531 11.7958 25.382 10.9366 25.2397C10.0775 25.0974 9.23418 24.8697 8.40681 24.5567C7.57944 24.2437 6.79981 23.8595 6.06791 23.4042C5.33601 22.9489 4.65184 22.4366 4.0154 21.8675C3.37897 21.2984 2.80618 20.6865 2.29703 20.032C1.78788 19.3775 1.35829 18.6803 1.00825 17.9404C0.658206 17.2005 0.403632 16.4464 0.244523 15.678C0.0854138 14.9097 0.00585938 14.1129 0.00585938 13.2876C0.00585938 12.4623 0.0854138 11.6655 0.244523 10.8972C0.403632 10.1288 0.658206 9.37472 1.00825 8.63483C1.35829 7.89494 1.78788 7.19774 2.29703 6.54322C2.80618 5.8887 3.37897 5.27687 4.0154 4.70772C4.65184 4.13857 5.33601 3.62634 6.06791 3.17102C6.79981 2.7157 7.57944 2.33153 8.40681 2.0185C9.23418 1.70547 10.0775 1.47781 10.9366 1.33552C11.7958 1.19324 12.6868 1.12209 13.6097 1.12209C14.5325 1.12209 15.4235 1.19324 16.2827 1.33552C17.1419 1.47781 17.9852 1.70547 18.8125 2.0185C19.6399 2.33153 20.4195 2.7157 21.1514 3.17102C21.8833 3.62634 22.5675 4.13857 23.2039 4.70772C23.8404 5.27687 24.4132 5.8887 24.9223 6.54322C25.4315 7.19774 25.8451 7.89494 26.1634 8.63483C26.4816 9.37472 26.7362 10.1288 26.9271 10.8972C27.118 11.6655 27.2135 12.4623 27.2135 13.2876C27.2135 14.1129 27.118 14.9097 26.9271 15.678C26.7362 16.4464 26.4816 17.2005 26.1634 17.9404C25.8451 18.6803 25.4315 19.3775 24.9223 20.032C24.4132 20.6865 23.8404 21.2984 23.2039 21.8675C22.5675 22.4366 21.8833 22.9489 21.1514 23.4042C20.4195 23.8595 19.6399 24.2437 18.8125 24.5567C17.9852 24.8697 17.1419 25.0974 16.2827 25.2397C15.4235 25.382 14.5484 25.4531 13.6574 25.4531ZM13.6574 2.40267C11.939 2.40267 10.3479 2.68725 8.88414 3.25639C7.42034 3.82554 6.13155 4.60812 5.01779 5.60412C3.90403 6.60013 3.02893 7.75266 2.39249 9.06169C1.75606 10.3707 1.43784 11.7794 1.43784 13.2876C1.43784 14.7958 1.75606 16.2045 2.39249 17.5135C3.02893 18.8226 3.90403 19.9751 5.01779 20.9711C6.13155 21.9671 7.42034 22.7497 8.88414 23.3188C10.3479 23.888 11.9231 24.1725 13.6097 24.1725C15.2962 24.1725 16.8714 23.888 18.3352 23.3188C19.799 22.7497 21.0878 21.9671 22.2016 20.9711C23.3153 19.9751 24.1904 18.8226 24.8269 17.5135C25.4633 16.2045 25.7815 14.7958 25.7815 13.2876C25.7815 11.7794 25.4633 10.3707 24.8269 9.06169C24.1904 7.75266 23.3153 6.60013 22.2016 5.60412C21.0878 4.60812 19.799 3.82554 18.3352 3.25639C16.8714 2.68725 15.3121 2.40267 13.6574 2.40267ZM10.7934 18.3672C10.6662 18.3672 10.5548 18.353 10.4593 18.3246C10.3639 18.2961 10.2843 18.2534 10.2207 18.1965L5.92471 14.3548C5.79742 14.2409 5.73378 14.0986 5.73378 13.9279C5.73378 13.7572 5.79742 13.6149 5.92471 13.501C6.052 13.3872 6.22702 13.3303 6.44977 13.3303C6.67252 13.3303 6.84754 13.3872 6.97483 13.501L10.7934 16.8305L20.2445 8.37872C20.3718 8.20797 20.5468 8.1226 20.7696 8.1226C20.9923 8.1226 21.1673 8.19374 21.2946 8.33603C21.4219 8.47832 21.4856 8.63483 21.4856 8.80558C21.4856 8.97632 21.4219 9.11861 21.2946 9.23244L11.2708 18.1965C11.2071 18.2534 11.1117 18.3103 10.9844 18.3672H10.7934Z" fill="#565656"/>
</g>
<defs>
<clipPath id="clip0_296_2872">
<rect width="27.4105" height="25.6116" fill="white" transform="matrix(1 0 0 -1 0 26.3066)"/>
</clipPath>
</defs>
</svg>
