<svg width="28" height="26" viewBox="0 0 28 26" fill="none" xmlns="http://www.w3.org/2000/svg">
<g clip-path="url(#clip0_296_2863)">
<path d="M13.6574 25.0234C12.7028 25.0234 11.7958 24.9523 10.9366 24.81C10.0775 24.6677 9.23418 24.4401 8.40681 24.127C7.57944 23.814 6.79981 23.4298 6.06791 22.9745C5.33601 22.5192 4.65184 22.007 4.0154 21.4378C3.37897 20.8687 2.80618 20.2568 2.29703 19.6023C1.78788 18.9478 1.35829 18.2506 1.00825 17.5107C0.658206 16.7708 0.403632 16.0167 0.244523 15.2483C0.0854138 14.48 0.00585938 13.6832 0.00585938 12.8579C0.00585938 12.0327 0.0854138 11.2359 0.244523 10.4675C0.403632 9.69915 0.658206 8.94504 1.00825 8.20514C1.35829 7.46525 1.78788 6.76805 2.29703 6.11353C2.80618 5.45901 3.37897 4.84718 4.0154 4.27803C4.65184 3.70888 5.33601 3.19665 6.06791 2.74133C6.79981 2.28602 7.57944 1.90184 8.40681 1.58881C9.23418 1.27578 10.0775 1.04812 10.9366 0.905834C11.7958 0.763548 12.6868 0.692404 13.6097 0.692404C14.5325 0.692404 15.4235 0.763548 16.2827 0.905834C17.1419 1.04812 17.9852 1.27578 18.8125 1.58881C19.6399 1.90184 20.4195 2.28602 21.1514 2.74133C21.8833 3.19665 22.5675 3.70888 23.2039 4.27803C23.8404 4.84718 24.4132 5.45901 24.9223 6.11353C25.4315 6.76805 25.8451 7.46525 26.1634 8.20514C26.4816 8.94504 26.7362 9.69915 26.9271 10.4675C27.118 11.2359 27.2135 12.0327 27.2135 12.8579C27.2135 13.6832 27.118 14.48 26.9271 15.2483C26.7362 16.0167 26.4816 16.7708 26.1634 17.5107C25.8451 18.2506 25.4315 18.9478 24.9223 19.6023C24.4132 20.2568 23.8404 20.8687 23.2039 21.4378C22.5675 22.007 21.8833 22.5192 21.1514 22.9745C20.4195 23.4298 19.6399 23.814 18.8125 24.127C17.9852 24.4401 17.1419 24.6677 16.2827 24.81C15.4235 24.9523 14.5484 25.0234 13.6574 25.0234ZM13.6574 1.97298C11.939 1.97298 10.3479 2.25756 8.88414 2.82671C7.42034 3.39585 6.13155 4.17843 5.01779 5.17444C3.90403 6.17044 3.02893 7.32297 2.39249 8.632C1.75606 9.94104 1.43784 11.3497 1.43784 12.8579C1.43784 14.3662 1.75606 15.7748 2.39249 17.0838C3.02893 18.3929 3.90403 19.5454 5.01779 20.5414C6.13155 21.5374 7.42034 22.32 8.88414 22.8891C10.3479 23.4583 11.9231 23.7429 13.6097 23.7429C15.2962 23.7429 16.8714 23.4583 18.3352 22.8891C19.799 22.32 21.0878 21.5374 22.2016 20.5414C23.3153 19.5454 24.1904 18.3929 24.8269 17.0838C25.4633 15.7748 25.7815 14.3662 25.7815 12.8579C25.7815 11.3497 25.4633 9.94104 24.8269 8.632C24.1904 7.32297 23.3153 6.17044 22.2016 5.17444C21.0878 4.17843 19.799 3.39585 18.3352 2.82671C16.8714 2.25756 15.3121 1.97298 13.6574 1.97298ZM10.7934 17.9376C10.6662 17.9376 10.5548 17.9233 10.4593 17.8949C10.3639 17.8664 10.2843 17.8237 10.2207 17.7668L5.92471 13.9251C5.79742 13.8112 5.73378 13.669 5.73378 13.4982C5.73378 13.3275 5.79742 13.1852 5.92471 13.0714C6.052 12.9575 6.22702 12.9006 6.44977 12.9006C6.67252 12.9006 6.84754 12.9575 6.97483 13.0714L10.7934 16.4009L20.2445 7.94903C20.3718 7.77828 20.5468 7.69291 20.7696 7.69291C20.9923 7.69291 21.1673 7.76406 21.2946 7.90634C21.4219 8.04863 21.4856 8.20514 21.4856 8.37589C21.4856 8.54663 21.4219 8.68892 21.2946 8.80275L11.2708 17.7668C11.2071 17.8237 11.1117 17.8806 10.9844 17.9376H10.7934Z" fill="#565656"/>
</g>
<defs>
<clipPath id="clip0_296_2863">
<rect width="27.4105" height="25.6116" fill="white" transform="matrix(1 0 0 -1 0 25.877)"/>
</clipPath>
</defs>
</svg>
