<svg width="28" height="27" viewBox="0 0 28 27" fill="none" xmlns="http://www.w3.org/2000/svg">
<g clip-path="url(#clip0_296_2858)">
<path d="M13.6574 25.502C12.7028 25.502 11.7958 25.4308 10.9366 25.2885C10.0775 25.1462 9.23418 24.9186 8.40681 24.6055C7.57944 24.2925 6.79981 23.9083 6.06791 23.453C5.33601 22.9977 4.65184 22.4855 4.0154 21.9163C3.37897 21.3472 2.80618 20.7353 2.29703 20.0808C1.78788 19.4263 1.35829 18.7291 1.00825 17.9892C0.658206 17.2493 0.403632 16.4952 0.244523 15.7269C0.0854138 14.9585 0.00585938 14.1617 0.00585938 13.3364C0.00585938 12.5112 0.0854138 11.7144 0.244523 10.946C0.403632 10.1777 0.658206 9.42355 1.00825 8.68366C1.35829 7.94377 1.78788 7.24656 2.29703 6.59204C2.80618 5.93753 3.37897 5.32569 4.0154 4.75655C4.65184 4.1874 5.33601 3.67517 6.06791 3.21985C6.79981 2.76453 7.57944 2.38036 8.40681 2.06733C9.23418 1.7543 10.0775 1.52664 10.9366 1.38435C11.7958 1.24206 12.6868 1.17092 13.6097 1.17092C14.5325 1.17092 15.4235 1.24206 16.2827 1.38435C17.1419 1.52664 17.9852 1.7543 18.8125 2.06733C19.6399 2.38036 20.4195 2.76453 21.1514 3.21985C21.8833 3.67517 22.5675 4.1874 23.2039 4.75655C23.8404 5.32569 24.4132 5.93753 24.9223 6.59204C25.4315 7.24656 25.8451 7.94377 26.1634 8.68366C26.4816 9.42355 26.7362 10.1777 26.9271 10.946C27.118 11.7144 27.2135 12.5112 27.2135 13.3364C27.2135 14.1617 27.118 14.9585 26.9271 15.7269C26.7362 16.4952 26.4816 17.2493 26.1634 17.9892C25.8451 18.7291 25.4315 19.4263 24.9223 20.0808C24.4132 20.7353 23.8404 21.3472 23.2039 21.9163C22.5675 22.4855 21.8833 22.9977 21.1514 23.453C20.4195 23.9083 19.6399 24.2925 18.8125 24.6055C17.9852 24.9186 17.1419 25.1462 16.2827 25.2885C15.4235 25.4308 14.5484 25.502 13.6574 25.502ZM13.6574 2.4515C11.939 2.4515 10.3479 2.73607 8.88414 3.30522C7.42034 3.87437 6.13155 4.65695 5.01779 5.65295C3.90403 6.64896 3.02893 7.80148 2.39249 9.11052C1.75606 10.4196 1.43784 11.8282 1.43784 13.3364C1.43784 14.8447 1.75606 16.2533 2.39249 17.5624C3.02893 18.8714 3.90403 20.0239 5.01779 21.0199C6.13155 22.0159 7.42034 22.7985 8.88414 23.3677C10.3479 23.9368 11.9231 24.2214 13.6097 24.2214C15.2962 24.2214 16.8714 23.9368 18.3352 23.3677C19.799 22.7985 21.0878 22.0159 22.2016 21.0199C23.3153 20.0239 24.1904 18.8714 24.8269 17.5624C25.4633 16.2533 25.7815 14.8447 25.7815 13.3364C25.7815 11.8282 25.4633 10.4196 24.8269 9.11052C24.1904 7.80148 23.3153 6.64896 22.2016 5.65295C21.0878 4.65695 19.799 3.87437 18.3352 3.30522C16.8714 2.73607 15.3121 2.4515 13.6574 2.4515ZM10.7934 18.4161C10.6662 18.4161 10.5548 18.4018 10.4593 18.3734C10.3639 18.3449 10.2843 18.3022 10.2207 18.2453L5.92471 14.4036C5.79742 14.2898 5.73378 14.1475 5.73378 13.9767C5.73378 13.806 5.79742 13.6637 5.92471 13.5499C6.052 13.436 6.22702 13.3791 6.44977 13.3791C6.67252 13.3791 6.84754 13.436 6.97483 13.5499L10.7934 16.8794L20.2445 8.42754C20.3718 8.2568 20.5468 8.17143 20.7696 8.17143C20.9923 8.17143 21.1673 8.24257 21.2946 8.38486C21.4219 8.52715 21.4856 8.68366 21.4856 8.8544C21.4856 9.02515 21.4219 9.16743 21.2946 9.28127L11.2708 18.2453C11.2071 18.3022 11.1117 18.3592 10.9844 18.4161H10.7934Z" fill="#565656"/>
</g>
<defs>
<clipPath id="clip0_296_2858">
<rect width="27.4105" height="25.6116" fill="white" transform="matrix(1 0 0 -1 0 26.3555)"/>
</clipPath>
</defs>
</svg>
