<svg width="28" height="27" viewBox="0 0 28 27" fill="none" xmlns="http://www.w3.org/2000/svg">
<g clip-path="url(#clip0_296_2868)">
<path d="M13.6574 25.5439C12.7028 25.5439 11.7958 25.4728 10.9366 25.3305C10.0775 25.1882 9.23418 24.9606 8.40681 24.6475C7.57944 24.3345 6.79981 23.9503 6.06791 23.495C5.33601 23.0397 4.65184 22.5275 4.0154 21.9583C3.37897 21.3892 2.80618 20.7773 2.29703 20.1228C1.78788 19.4683 1.35829 18.7711 1.00825 18.0312C0.658206 17.2913 0.403632 16.5372 0.244523 15.7688C0.0854138 15.0005 0.00585938 14.2037 0.00585938 13.3784C0.00585938 12.5532 0.0854138 11.7564 0.244523 10.988C0.403632 10.2197 0.658206 9.46554 1.00825 8.72565C1.35829 7.98576 1.78788 7.28856 2.29703 6.63404C2.80618 5.97952 3.37897 5.36769 4.0154 4.79854C4.65184 4.22939 5.33601 3.71716 6.06791 3.26184C6.79981 2.80652 7.57944 2.42235 8.40681 2.10932C9.23418 1.79629 10.0775 1.56863 10.9366 1.42634C11.7958 1.28406 12.6868 1.21291 13.6097 1.21291C14.5325 1.21291 15.4235 1.28406 16.2827 1.42634C17.1419 1.56863 17.9852 1.79629 18.8125 2.10932C19.6399 2.42235 20.4195 2.80652 21.1514 3.26184C21.8833 3.71716 22.5675 4.22939 23.2039 4.79854C23.8404 5.36769 24.4132 5.97952 24.9223 6.63404C25.4315 7.28856 25.8451 7.98576 26.1634 8.72565C26.4816 9.46554 26.7362 10.2197 26.9271 10.988C27.118 11.7564 27.2135 12.5532 27.2135 13.3784C27.2135 14.2037 27.118 15.0005 26.9271 15.7688C26.7362 16.5372 26.4816 17.2913 26.1634 18.0312C25.8451 18.7711 25.4315 19.4683 24.9223 20.1228C24.4132 20.7773 23.8404 21.3892 23.2039 21.9583C22.5675 22.5275 21.8833 23.0397 21.1514 23.495C20.4195 23.9503 19.6399 24.3345 18.8125 24.6475C17.9852 24.9606 17.1419 25.1882 16.2827 25.3305C15.4235 25.4728 14.5484 25.5439 13.6574 25.5439ZM13.6574 2.49349C11.939 2.49349 10.3479 2.77807 8.88414 3.34721C7.42034 3.91636 6.13155 4.69894 5.01779 5.69494C3.90403 6.69095 3.02893 7.84348 2.39249 9.15251C1.75606 10.4616 1.43784 11.8702 1.43784 13.3784C1.43784 14.8867 1.75606 16.2953 2.39249 17.6043C3.02893 18.9134 3.90403 20.0659 5.01779 21.0619C6.13155 22.0579 7.42034 22.8405 8.88414 23.4096C10.3479 23.9788 11.9231 24.2634 13.6097 24.2634C15.2962 24.2634 16.8714 23.9788 18.3352 23.4096C19.799 22.8405 21.0878 22.0579 22.2016 21.0619C23.3153 20.0659 24.1904 18.9134 24.8269 17.6043C25.4633 16.2953 25.7815 14.8867 25.7815 13.3784C25.7815 11.8702 25.4633 10.4616 24.8269 9.15251C24.1904 7.84348 23.3153 6.69095 22.2016 5.69494C21.0878 4.69894 19.799 3.91636 18.3352 3.34721C16.8714 2.77807 15.3121 2.49349 13.6574 2.49349ZM10.7934 18.4581C10.6662 18.4581 10.5548 18.4438 10.4593 18.4154C10.3639 18.3869 10.2843 18.3442 10.2207 18.2873L5.92471 14.4456C5.79742 14.3317 5.73378 14.1895 5.73378 14.0187C5.73378 13.848 5.79742 13.7057 5.92471 13.5919C6.052 13.478 6.22702 13.4211 6.44977 13.4211C6.67252 13.4211 6.84754 13.478 6.97483 13.5919L10.7934 16.9214L20.2445 8.46954C20.3718 8.29879 20.5468 8.21342 20.7696 8.21342C20.9923 8.21342 21.1673 8.28456 21.2946 8.42685C21.4219 8.56914 21.4856 8.72565 21.4856 8.8964C21.4856 9.06714 21.4219 9.20943 21.2946 9.32326L11.2708 18.2873C11.2071 18.3442 11.1117 18.4012 10.9844 18.4581H10.7934Z" fill="#565656"/>
</g>
<defs>
<clipPath id="clip0_296_2868">
<rect width="27.4105" height="25.6116" fill="white" transform="matrix(1 0 0 -1 0 26.3975)"/>
</clipPath>
</defs>
</svg>
