<svg width="40" height="36" viewBox="0 0 40 36" fill="none" xmlns="http://www.w3.org/2000/svg">
<path d="M8.33045 5.95463C7.81448 5.49598 7.02439 5.54246 6.56574 6.05843C6.10709 6.57441 6.15357 7.3645 6.66955 7.82315L8.33045 5.95463ZM31.6695 30.0454C32.1855 30.504 32.9756 30.4575 33.4343 29.9416C33.8929 29.4256 33.8464 28.6355 33.3305 28.1768L31.6695 30.0454ZM20 32.75C10.6068 32.75 3.25 26.0119 3.25 18H0.75C0.75 27.6613 9.51099 35.25 20 35.25V32.75ZM3.25 18C3.25 9.98814 10.6068 3.25 20 3.25V0.75C9.51099 0.75 0.75 8.33875 0.75 18H3.25ZM20 3.25C29.3932 3.25 36.75 9.98814 36.75 18H39.25C39.25 8.33875 30.489 0.75 20 0.75V3.25ZM36.75 18C36.75 26.0119 29.3932 32.75 20 32.75V35.25C30.489 35.25 39.25 27.6613 39.25 18H36.75ZM6.66955 7.82315L31.6695 30.0454L33.3305 28.1768L8.33045 5.95463L6.66955 7.82315Z" fill="#0D0D0D"/>
</svg>
