<svg width="34" height="16" viewBox="0 0 34 16" fill="none" xmlns="http://www.w3.org/2000/svg">
<path d="M12.5333 15.4664L7.73333 12.693L2.93333 15.4664H2.82667H2.72L2.66667 15.3597V15.1997L3.52 9.70636L0.0533333 6.02635L0 5.91969V5.75969L0.0533333 5.70635L0.16 5.65302L5.38667 4.69302L7.57333 0.106354C7.57333 0.0707979 7.59111 0.035243 7.62667 -0.000312805H7.73333H7.84C7.87556 0.035243 7.89333 0.0707979 7.89333 0.106354L10.08 4.69302L15.3067 5.65302L15.4133 5.70635L15.4667 5.75969C15.4667 5.8308 15.4667 5.88413 15.4667 5.91969L15.4133 6.02635L11.9467 9.70636L12.8 15.1997C12.8 15.2708 12.8 15.3241 12.8 15.3597L12.7467 15.4664H12.6933H12.5333Z" fill="#FECC00"/>
<path d="M30.5001 15.5742L25.7001 12.8009L20.9001 15.5742H20.7935H20.6868L20.6335 15.4676V15.3076L21.4868 9.81422L18.0201 6.13422L17.9668 6.02755V5.86755L18.0201 5.81422L18.1268 5.76089L23.3535 4.80089L25.5401 0.214218C25.5401 0.178662 25.5579 0.143107 25.5935 0.107552H25.7001H25.8068C25.8424 0.143107 25.8601 0.178662 25.8601 0.214218L28.0468 4.80089L33.2735 5.76089L33.3801 5.81422L33.4335 5.86755C33.4335 5.93866 33.4335 5.992 33.4335 6.02755L33.3801 6.13422L29.9135 9.81422L30.7668 15.3076C30.7668 15.3787 30.7668 15.432 30.7668 15.4676L30.7135 15.5742H30.6601H30.5001Z" fill="#FECC00"/>
</svg>
