<svg width="48" height="45" viewBox="0 0 48 45" fill="none" xmlns="http://www.w3.org/2000/svg">
<path d="M26.8013 32.6619H21.7813C18.5013 32.6619 15.8413 30.0744 15.8413 26.8869C15.8413 26.1182 16.5213 25.4807 17.3413 25.4807C18.1613 25.4807 18.8413 26.1182 18.8413 26.8869C18.8413 28.5182 20.1613 29.8494 21.7813 29.8494H26.8013C28.1013 29.8494 29.1813 28.7619 29.1813 27.4494C29.1813 25.8182 28.5613 25.4994 27.5413 25.1619L19.4813 22.4994C17.9213 21.9932 15.8213 20.9057 15.8213 17.5494C15.8213 14.6619 18.2413 12.3369 21.2013 12.3369H26.2213C29.5013 12.3369 32.1613 14.9244 32.1613 18.1119C32.1613 18.8807 31.4813 19.5182 30.6613 19.5182C29.8413 19.5182 29.1613 18.8807 29.1613 18.1119C29.1613 16.4807 27.8413 15.1494 26.2213 15.1494H21.2013C19.9013 15.1494 18.8213 16.2369 18.8213 17.5494C18.8213 19.1807 19.4413 19.4994 20.4613 19.8369L28.5213 22.4994C30.0813 23.0057 32.1813 24.0932 32.1813 27.4494C32.1613 30.3182 29.7613 32.6619 26.8013 32.6619Z" fill="#0D0D0D"/>
<path d="M24 35.1562C23.18 35.1562 22.5 34.5187 22.5 33.75V11.25C22.5 10.4812 23.18 9.84375 24 9.84375C24.82 9.84375 25.5 10.4812 25.5 11.25V33.75C25.5 34.5187 24.82 35.1562 24 35.1562Z" fill="#0D0D0D"/>
<path d="M24 42.6572C12.14 42.6572 2.5 33.6197 2.5 22.501C2.5 11.3822 12.14 2.34473 24 2.34473C35.86 2.34473 45.5 11.3822 45.5 22.501C45.5 33.6197 35.86 42.6572 24 42.6572ZM24 5.15723C13.8 5.15723 5.5 12.9385 5.5 22.501C5.5 32.0635 13.8 39.8447 24 39.8447C34.2 39.8447 42.5 32.0635 42.5 22.501C42.5 12.9385 34.2 5.15723 24 5.15723Z" fill="#0D0D0D"/>
</svg>
