<svg width="43" height="39" viewBox="0 0 43 39" fill="none" xmlns="http://www.w3.org/2000/svg">
<path d="M27.3051 36.9688H15.6951C12.3089 36.9688 9.83638 35.685 8.8868 33.475C7.90138 31.1675 8.81513 28.3075 11.1801 26.3737L19.4935 19.5L11.1801 12.6263C8.81513 10.6925 7.90138 7.8325 8.8868 5.525C9.83638 3.29875 12.3089 2.03125 15.6951 2.03125H27.3051C30.6914 2.03125 33.1639 3.315 34.1135 5.525C35.0989 7.8325 34.1851 10.6925 31.8201 12.6263L23.5068 19.5L31.838 26.3737C34.1851 28.3075 35.1168 31.1675 34.1314 33.475C33.1639 35.685 30.6914 36.9688 27.3051 36.9688ZM21.5001 21.1413L12.9897 28.1612C11.4847 29.4125 10.8218 31.2325 11.3951 32.5812C11.9326 33.8325 13.4555 34.5312 15.6951 34.5312H27.3051C29.5447 34.5312 31.0676 33.8487 31.6051 32.5812C32.1785 31.2325 31.5335 29.4125 30.0105 28.1612L21.5001 21.1413ZM15.6951 4.46875C13.4555 4.46875 11.9326 5.15125 11.3951 6.41875C10.8218 7.7675 11.4668 9.5875 12.9897 10.8387L21.5001 17.8587L30.0105 10.8387C31.5155 9.5875 32.1785 7.7675 31.6051 6.41875C31.0676 5.1675 29.5447 4.46875 27.3051 4.46875H15.6951Z" fill="#0D0D0D"/>
</svg>
