<svg width="61" height="63" viewBox="0 0 61 63" fill="none" xmlns="http://www.w3.org/2000/svg">
<path d="M29.8393 46.5941H44.886C44.6573 46.8041 44.4285 46.9878 44.1997 47.1978L33.3468 55.5978C29.7631 58.354 23.9173 58.354 20.3081 55.5978L9.42976 47.1978C7.0406 45.3603 5.0835 41.2916 5.0835 38.2203V18.769C5.0835 15.5665 7.44726 12.0228 10.3448 10.894L23.0023 5.98531C25.0864 5.17156 28.5431 5.17156 30.6273 5.98531L43.2593 10.894C45.6739 11.839 47.7327 14.4641 48.3681 17.1416H29.8139C29.2547 17.1416 28.7464 17.1678 28.2635 17.1678C23.5614 17.4566 22.3414 19.2153 22.3414 24.754V39.0078C22.3668 45.0453 23.8664 46.5941 29.8393 46.5941Z" stroke="#3BA585" stroke-width="1.5" stroke-linecap="round" stroke-linejoin="round"/>
<path d="M22.3667 29.4531H55.9167" stroke="#3BA585" stroke-width="1.5" stroke-miterlimit="10" stroke-linecap="round" stroke-linejoin="round"/>
<path d="M55.9167 24.7286V39.2973C55.8659 45.1248 54.3154 46.5685 48.4442 46.5685H29.8392C23.8663 46.5685 22.3667 45.0198 22.3667 38.9561V24.7023C22.3667 19.1898 23.5867 17.431 28.2888 17.116C28.7717 17.116 29.28 17.0898 29.8392 17.0898H48.4442C54.4171 17.1161 55.9167 18.6386 55.9167 24.7286Z" stroke="#3BA585" stroke-width="1.5" stroke-linecap="round" stroke-linejoin="round"/>
<path d="M28.772 40.0586H32.1524" stroke="#3BA585" stroke-width="1.5" stroke-miterlimit="10" stroke-linecap="round" stroke-linejoin="round"/>
<path d="M37.4897 40.0586H45.801" stroke="#3BA585" stroke-width="1.5" stroke-miterlimit="10" stroke-linecap="round" stroke-linejoin="round"/>
</svg>
