<svg width="47" height="43" viewBox="0 0 47 43" fill="none" xmlns="http://www.w3.org/2000/svg">
<path d="M25.5566 29.1152H21.8749C19.2704 29.1152 17.1357 27.1086 17.1357 24.6361C17.1357 23.9015 17.8016 23.2923 18.6045 23.2923C19.4074 23.2923 20.0732 23.9015 20.0732 24.6361C20.0732 25.6215 20.8762 26.4277 21.8749 26.4277H25.5566C26.3203 26.4277 26.9274 25.8007 26.9274 25.0302C26.9274 24.0627 26.6337 23.9194 25.9678 23.7044L20.0732 21.8231C18.8199 21.4111 17.1357 20.5869 17.1357 17.9532C17.1357 15.7136 19.0745 13.8682 21.4441 13.8682H25.1257C27.7303 13.8682 29.8649 15.8748 29.8649 18.3473C29.8649 19.0819 29.1991 19.6911 28.3962 19.6911C27.5932 19.6911 26.9274 19.0819 26.9274 18.3473C26.9274 17.3619 26.1245 16.5557 25.1257 16.5557H21.4441C20.6803 16.5557 20.0732 17.1827 20.0732 17.9532C20.0732 18.9207 20.367 19.064 21.0328 19.279L26.9274 21.1602C28.1807 21.5723 29.8649 22.3965 29.8649 25.0302C29.8649 27.2877 27.9261 29.1152 25.5566 29.1152Z" fill="#0D0D0D"/>
<path d="M23.5 30.9062C22.6971 30.9062 22.0312 30.2971 22.0312 29.5625V13.4375C22.0312 12.7029 22.6971 12.0938 23.5 12.0938C24.3029 12.0938 24.9688 12.7029 24.9688 13.4375V29.5625C24.9688 30.2971 24.3029 30.9062 23.5 30.9062Z" fill="#0D0D0D"/>
<path d="M23.5003 40.7611C11.8874 40.7611 2.44824 32.1252 2.44824 21.5007C2.44824 10.8761 11.8874 2.24023 23.5003 2.24023C24.3032 2.24023 24.9691 2.8494 24.9691 3.58398C24.9691 4.31857 24.3032 4.92773 23.5003 4.92773C13.5128 4.92773 5.38574 12.3632 5.38574 21.5007C5.38574 30.6382 13.5128 38.0736 23.5003 38.0736C33.4878 38.0736 41.6149 30.6382 41.6149 21.5007C41.6149 20.7661 42.2807 20.1569 43.0837 20.1569C43.8866 20.1569 44.5524 20.7661 44.5524 21.5007C44.5524 32.1252 35.1132 40.7611 23.5003 40.7611Z" fill="#0D0D0D"/>
<path d="M43.0833 12.0944C42.2804 12.0944 41.6146 11.4852 41.6146 10.7507V4.92773H35.25C34.4471 4.92773 33.7812 4.31857 33.7812 3.58398C33.7812 2.8494 34.4471 2.24023 35.25 2.24023H43.0833C43.8862 2.24023 44.5521 2.8494 44.5521 3.58398V10.7507C44.5521 11.4852 43.8862 12.0944 43.0833 12.0944Z" fill="#0D0D0D"/>
<path d="M33.29 13.8865C32.9179 13.8865 32.5459 13.7611 32.2521 13.4923C31.6842 12.9727 31.6842 12.1127 32.2521 11.5931L42.0438 2.6348C42.6117 2.11522 43.5517 2.11522 44.1196 2.6348C44.6875 3.15439 44.6875 4.01438 44.1196 4.53397L34.3279 13.4923C34.0342 13.7611 33.6621 13.8865 33.29 13.8865Z" fill="#0D0D0D"/>
</svg>
