<svg width="282" height="267" viewBox="0 0 282 267" fill="none" xmlns="http://www.w3.org/2000/svg">
<path d="M142.41 142.177C141.587 142.066 140.53 142.066 139.59 142.177C118.91 141.51 102.46 125.49 102.46 105.799C102.46 85.6623 119.615 69.3086 141 69.3086C162.267 69.3086 179.54 85.6623 179.54 105.799C179.422 125.49 163.09 141.51 142.41 142.177Z" stroke="#828282" stroke-width="1.5" stroke-linecap="round" stroke-linejoin="round"/>
<path d="M220.195 215.603C199.28 233.737 171.55 244.75 141 244.75C110.45 244.75 82.7197 233.737 61.8047 215.603C62.9797 205.145 70.0297 194.91 82.6022 186.9C114.797 166.653 167.437 166.653 199.397 186.9C211.97 194.91 219.02 205.145 220.195 215.603Z" stroke="#828282" stroke-width="1.5" stroke-linecap="round" stroke-linejoin="round"/>
<path d="M141 244.75C205.893 244.75 258.5 194.942 258.5 133.5C258.5 72.0583 205.893 22.25 141 22.25C76.1065 22.25 23.5 72.0583 23.5 133.5C23.5 194.942 76.1065 244.75 141 244.75Z" stroke="#828282" stroke-width="1.5" stroke-linecap="round" stroke-linejoin="round"/>
</svg>
