<svg width="29" height="33" viewBox="0 0 29 33" fill="none" xmlns="http://www.w3.org/2000/svg">
<path d="M26.2935 21.5644L18.5602 5.95992C17.521 3.86036 16.0831 2.70898 14.5002 2.70898C12.9172 2.70898 11.4793 3.86036 10.4402 5.95992L2.70682 21.5644C1.72807 23.5556 1.61932 25.4655 2.40474 26.9691C3.19016 28.4727 4.73682 29.2989 6.76682 29.2989H22.2335C24.2635 29.2989 25.8102 28.4727 26.5956 26.9691C27.381 25.4655 27.2722 23.5421 26.2935 21.5644ZM13.5939 12.1909C13.5939 11.6355 14.0047 11.175 14.5002 11.175C14.9956 11.175 15.4064 11.6355 15.4064 12.1909V18.9637C15.4064 19.519 14.9956 19.9796 14.5002 19.9796C14.0047 19.9796 13.5939 19.519 13.5939 18.9637V12.1909ZM15.3581 23.9891C15.2977 24.0433 15.2372 24.0974 15.1768 24.1516C15.1043 24.2058 15.0318 24.2464 14.9593 24.2735C14.8868 24.3142 14.8143 24.3413 14.7297 24.3548C14.6572 24.3683 14.5727 24.3819 14.5002 24.3819C14.4277 24.3819 14.3431 24.3683 14.2585 24.3548C14.186 24.3413 14.1135 24.3142 14.041 24.2735C13.9685 24.2464 13.896 24.2058 13.8235 24.1516C13.7631 24.0974 13.7027 24.0433 13.6422 23.9891C13.4247 23.7317 13.2918 23.3795 13.2918 23.0273C13.2918 22.6752 13.4247 22.323 13.6422 22.0656C13.7027 22.0114 13.7631 21.9572 13.8235 21.9031C13.896 21.8489 13.9685 21.8082 14.041 21.7811C14.1135 21.7405 14.186 21.7134 14.2585 21.6999C14.4156 21.6592 14.5847 21.6592 14.7297 21.6999C14.8143 21.7134 14.8868 21.7405 14.9593 21.7811C15.0318 21.8082 15.1043 21.8489 15.1768 21.9031C15.2372 21.9572 15.2977 22.0114 15.3581 22.0656C15.5756 22.323 15.7085 22.6752 15.7085 23.0273C15.7085 23.3795 15.5756 23.7317 15.3581 23.9891Z" fill="#FFAF65"/>
</svg>
